<svg aria-hidden="true" style="position: absolute; width: 0; height: 0; overflow: hidden;" version="1.1" xmlns="http://www.w3.org/2000/svg" xmlns:xlink="http://www.w3.org/1999/xlink">
    <defs>
        <!-- Icon Navigation -->
        <symbol id="icon-arrow-left" viewBox="0 0 32 32">
            <path fill="none" stroke="#99938f" stroke-width="3" stroke-miterlimit="10" stroke-linecap="round" stroke-linejoin="round" d="M20 26.56l-8.693-8.693c-1.027-1.027-1.027-2.707 0-3.733l8.693-8.693"></path>
        </symbol>
        <symbol id="icon-arrow-right" viewBox="0 0 32 32">
            <path fill="none" stroke="#99938f" stroke-width="3" stroke-miterlimit="10" stroke-linecap="round" stroke-linejoin="round" d="M11.88 26.56l8.693-8.693c1.027-1.027 1.027-2.707 0-3.733l-8.693-8.693"></path>
        </symbol>
        <symbol id="icon-arrow-left-activ" viewBox="0 0 32 32">
            <path fill="none" stroke="#000000" stroke-width="3" stroke-miterlimit="10" stroke-linecap="round" stroke-linejoin="round" d="M20 26.56l-8.693-8.693c-1.027-1.027-1.027-2.707 0-3.733l8.693-8.693"></path>
        </symbol>
        <symbol id="icon-arrow-right-activ" viewBox="0 0 32 32">
            <path fill="none" stroke="#000000" stroke-width="3" stroke-miterlimit="10" stroke-linecap="round" stroke-linejoin="round" d="M11.88 26.56l8.693-8.693c1.027-1.027 1.027-2.707 0-3.733l-8.693-8.693"></path>
        </symbol>
        <!-- Icon Searchbar -->
        <symbol id="icon-filter-searchbar" viewBox="0 0 35 32">
            <path fill="none" stroke="#3C3C43" stroke-opacity="0.6" stroke-width="2.4" stroke-miterlimit="4" stroke-linecap="round" stroke-linejoin="miter" d="M2.725 24.889h17.746"></path>
            <path fill="none" stroke="#3C3C43" stroke-opacity="0.6" stroke-width="2.4" stroke-miterlimit="4" stroke-linecap="round" stroke-linejoin="miter" d="M15.147 7.111h17.746"></path>
            <path fill="none" stroke="#3C3C43" stroke-opacity="0.6" stroke-width="2.4" stroke-miterlimit="4" stroke-linecap="butt" stroke-linejoin="miter" d="M33.467 24.889c0 3.267-2.643 5.911-5.898 5.911s-5.898-2.644-5.898-5.911c0-3.267 2.643-5.911 5.898-5.911s5.898 2.645 5.898 5.911z"></path>
            <path fill="none" stroke="#3C3C43" stroke-opacity="0.6" stroke-width="2.4" stroke-miterlimit="4" stroke-linecap="butt" stroke-linejoin="miter" d="M13.947 7.111c0 3.267-2.643 5.911-5.898 5.911s-5.898-2.644-5.898-5.911c0-3.267 2.643-5.911 5.898-5.911s5.898 2.644 5.898 5.911z"></path>
        </symbol>
        <symbol id="icon-magnifyingglass" viewBox="0 0 32 32">
            <path fill="#3C3C43" fillOpacity="0.6" style="fill: var(--color-searchbar-white)" d="M13.391 24.948c2.484 0 4.813-0.75 6.75-2.031l6.844 6.859c0.453 0.438 1.031 0.656 1.656 0.656 1.297 0 2.25-1.016 2.25-2.297 0-0.594-0.203-1.172-0.641-1.609l-6.797-6.828c1.406-2 2.234-4.422 2.234-7.047 0-6.766-5.531-12.297-12.297-12.297-6.75 0-12.297 5.531-12.297 12.297s5.531 12.297 12.297 12.297zM13.391 21.667c-4.953 0-9.016-4.063-9.016-9.016s4.063-9.016 9.016-9.016c4.953 0 9.016 4.063 9.016 9.016s-4.062 9.016-9.016 9.016z"></path>
        </symbol>
        <!-- Icon Sidebar -->
        <symbol id="icon-homeIcon-orange" viewBox="0 0 29 32">
            <path fill="#ff7e3a" stroke="#ff7e3a" stroke-width="0.8727" stroke-miterlimit="4" stroke-linecap="butt" stroke-linejoin="round" style="fill: var(--color1, #ff7e3a); stroke: var(--color1, #ff7e3a)" d="M14.698 1.576c-0.242 0.008-0.476 0.094-0.666 0.244l-10.767 8.483c-1.367 1.077-2.166 2.723-2.166 4.463v14.462c0 1.033 0.861 1.894 1.894 1.894h7.576c1.033 0 1.894-0.861 1.894-1.894v-7.576c0-0.224 0.155-0.379 0.379-0.379h3.788c0.224 0 0.379 0.155 0.379 0.379v7.576c0 1.033 0.861 1.894 1.894 1.894h7.576c1.033 0 1.894-0.861 1.894-1.894v-14.462c0-1.74-0.8-3.386-2.166-4.463l-10.767-8.483c-0.21-0.166-0.472-0.252-0.74-0.244zM14.735 4.159l10.065 7.929c0.821 0.647 1.299 1.632 1.299 2.677v14.083h-6.818v-7.197c0-1.451-1.201-2.651-2.651-2.651h-3.788c-1.451 0-2.652 1.201-2.652 2.651v7.197h-6.818v-14.083c0-1.045 0.478-2.029 1.299-2.677l10.064-7.929z"></path>
        </symbol>
        <symbol id="icon-homeIcon-black" viewBox="0 0 31 32">
            <path stroke="#25272B" stroke-width="1.16" stroke-miterlimit="10" stroke-linecap="butt" stroke-linejoin="round" d="M15.425 1.576c-0.242 0.008-0.476 0.094-0.666 0.244l-10.767 8.483c-1.367 1.077-2.166 2.723-2.166 4.463v14.462c0 1.033 0.861 1.894 1.894 1.894h7.576c1.033 0 1.894-0.861 1.894-1.894v-7.576c0-0.224 0.155-0.379 0.379-0.379h3.788c0.224 0 0.379 0.155 0.379 0.379v7.576c0 1.033 0.861 1.894 1.894 1.894h7.576c1.033 0 1.894-0.861 1.894-1.894v-14.462c0-1.74-0.8-3.386-2.166-4.463l-10.767-8.483c-0.21-0.166-0.472-0.252-0.74-0.244zM15.462 4.159l10.065 7.929c0.821 0.647 1.299 1.632 1.299 2.677v14.083h-6.818v-7.197c0-1.451-1.201-2.651-2.651-2.651h-3.788c-1.451 0-2.652 1.201-2.652 2.651v7.197h-6.818v-14.083c0-1.045 0.478-2.029 1.299-2.677l10.064-7.929z"></path>
        </symbol>
        <symbol id="icon-compass-orange" viewBox="0 0 33 32">
            <path fill="#ff7e3a" style="fill: var(--color1, #ff7e3a)" d="M29.8 16c0-3.448-1.37-6.754-3.808-9.192s-5.745-3.808-9.192-3.808c-3.448 0-6.754 1.37-9.192 3.808s-3.808 5.745-3.808 9.192c0 3.448 1.37 6.754 3.808 9.192s5.745 3.808 9.192 3.808 6.754-1.37 9.192-3.808c2.438-2.438 3.808-5.745 3.808-9.192zM0.8 16c0-4.243 1.686-8.313 4.686-11.314s7.070-4.686 11.314-4.686c4.243 0 8.313 1.686 11.314 4.686s4.686 7.070 4.686 11.314c0 4.243-1.686 8.313-4.686 11.314s-7.070 4.686-11.314 4.686c-4.244 0-8.313-1.686-11.314-4.686s-4.686-7.070-4.686-11.314zM19.969 20.319l-9.019 3.469c-1.213 0.469-2.406-0.725-1.938-1.938l3.469-9.019c0.206-0.531 0.619-0.944 1.15-1.15l9.019-3.469c1.212-0.469 2.406 0.725 1.937 1.938l-3.469 9.019c-0.2 0.531-0.619 0.944-1.15 1.15zM18.8 16c0-0.53-0.211-1.039-0.586-1.414s-0.884-0.586-1.414-0.586-1.039 0.211-1.414 0.586c-0.375 0.375-0.586 0.884-0.586 1.414s0.211 1.039 0.586 1.414c0.375 0.375 0.884 0.586 1.414 0.586s1.039-0.211 1.414-0.586c0.375-0.375 0.586-0.884 0.586-1.414z"></path>
        </symbol>
        <symbol id="icon-compass-black" viewBox="0 0 33 32">
            <path stroke="#25272B" d="M29.16 16c0-3.448-1.37-6.754-3.808-9.192s-5.745-3.808-9.192-3.808-6.754 1.37-9.192 3.808c-2.438 2.438-3.808 5.745-3.808 9.192s1.37 6.754 3.808 9.192c2.438 2.438 5.745 3.808 9.192 3.808s6.754-1.37 9.192-3.808c2.438-2.438 3.808-5.745 3.808-9.192zM0.16 16c0-4.243 1.686-8.313 4.686-11.314s7.070-4.686 11.314-4.686c4.243 0 8.313 1.686 11.314 4.686s4.686 7.070 4.686 11.314c0 4.243-1.686 8.313-4.686 11.314s-7.070 4.686-11.314 4.686c-4.243 0-8.313-1.686-11.314-4.686s-4.686-7.070-4.686-11.314zM19.329 20.319l-9.019 3.469c-1.213 0.469-2.406-0.725-1.938-1.938l3.469-9.019c0.206-0.531 0.619-0.944 1.15-1.15l9.019-3.469c1.213-0.469 2.406 0.725 1.938 1.938l-3.469 9.019c-0.2 0.531-0.619 0.944-1.15 1.15zM18.16 16c0-0.53-0.211-1.039-0.586-1.414s-0.884-0.586-1.414-0.586-1.039 0.211-1.414 0.586c-0.375 0.375-0.586 0.884-0.586 1.414s0.211 1.039 0.586 1.414c0.375 0.375 0.884 0.586 1.414 0.586s1.039-0.211 1.414-0.586c0.375-0.375 0.586-0.884 0.586-1.414z"></path>
        </symbol>
        <symbol id="icon-heart-black" viewBox="0 0 37 32">
            <path stroke="#25272B" d="M15.724 30.589l-0.172-0.158-12.045-11.186c-2.111-1.959-3.307-4.709-3.307-7.59v-0.227c0-4.84 3.438-8.992 8.195-9.9 2.709-0.522 5.479 0.103 7.686 1.657 0.619 0.44 1.196 0.949 1.719 1.533 0.289-0.33 0.598-0.633 0.928-0.914 0.254-0.22 0.516-0.426 0.791-0.619 2.207-1.554 4.978-2.179 7.686-1.664 4.758 0.907 8.195 5.067 8.195 9.907v0.227c0 2.881-1.196 5.631-3.307 7.59l-12.217 11.344c-0.564 0.523-1.306 0.818-2.076 0.818s-1.512-0.289-2.076-0.818zM16.639 8.369c-0.028-0.021-0.048-0.048-0.069-0.076l-1.231-1.382c-1.588-1.781-3.987-2.592-6.325-2.145-3.204 0.612-5.514 3.403-5.514 6.662v0.227c0 1.959 0.818 3.836 2.255 5.17l12.045 11.186 12.045-11.186c1.437-1.334 2.255-3.211 2.255-5.17v-0.227c0-3.252-2.31-6.050-5.507-6.662-2.337-0.447-4.744 0.371-6.325 2.145 0 0 0 0-0.007 0.007s0 0-0.007 0.007l-1.224 1.375c-0.020 0.027-0.048 0.048-0.069 0.076-0.309 0.309-0.729 0.481-1.162 0.481s-0.852-0.172-1.162-0.481v-0.007z"></path>
        </symbol>
        <symbol id="icon-heart-orange" viewBox="0 0 37 32">
            <path fill="#ff7e3a" style="fill: var(--color1, #ff7e3a)" d="M15.724 30.589l-0.172-0.158-12.045-11.186c-2.111-1.959-3.307-4.709-3.307-7.59v-0.227c0-4.84 3.438-8.992 8.195-9.9 2.709-0.522 5.479 0.103 7.686 1.657 0.619 0.44 1.196 0.949 1.719 1.533 0.289-0.33 0.598-0.633 0.928-0.914 0.254-0.22 0.516-0.426 0.791-0.619 2.207-1.554 4.978-2.179 7.686-1.664 4.758 0.907 8.195 5.067 8.195 9.907v0.227c0 2.881-1.196 5.631-3.307 7.59l-12.217 11.344c-0.564 0.523-1.306 0.818-2.076 0.818s-1.512-0.289-2.076-0.818zM16.638 8.369c-0.028-0.021-0.048-0.048-0.069-0.076l-1.231-1.382c-1.588-1.781-3.988-2.592-6.325-2.145-3.204 0.612-5.514 3.403-5.514 6.662v0.227c0 1.959 0.818 3.836 2.255 5.17l12.045 11.186 12.045-11.186c1.437-1.334 2.255-3.211 2.255-5.17v-0.227c0-3.252-2.31-6.050-5.507-6.662-2.337-0.447-4.744 0.371-6.325 2.145 0 0 0 0-0.007 0.007s0 0-0.007 0.007l-1.224 1.375c-0.021 0.027-0.048 0.048-0.069 0.076-0.309 0.309-0.729 0.481-1.162 0.481s-0.852-0.172-1.162-0.481v-0.007z"></path>
        </symbol>
        <!-- Icon Player Music -->
        <symbol id="icon-left-lastmusic" viewBox="0 0 32 32">
            <path fill="#ff7e3a" style="fill: var(#ff7e3a)" d="M27.058 9.771v12.25c0 2.509-2.726 4.083-4.902 2.829l-5.312-3.059-5.312-3.072c-2.176-1.254-2.176-4.39 0-5.645l5.312-3.072 5.312-3.059c2.176-1.254 4.902 0.307 4.902 2.829z"></path>
            <path fill="#ff7e3a" style="fill: var(#ff7e3a)" d="M5.964 24.76c-0.525 0-0.96-0.435-0.96-0.96v-15.821c0-0.525 0.435-0.96 0.96-0.96s0.96 0.435 0.96 0.96v15.821c0 0.525-0.435 0.96-0.96 0.96z"></path>
        </symbol>
        <symbol id="icon-playButton" viewBox="0 0 31 32">
            <path fill="#ff7e3a" style="fill: var(#ff7e3a)" d="M15.451 0.683c-8.411 0-15.238 6.827-15.238 15.238s6.827 15.238 15.238 15.238 15.238-6.827 15.238-15.238c0-8.411-6.827-15.238-15.238-15.238zM19.504 18.557l-3.901 2.255c-2.514 1.448-4.571 0.259-4.571-2.636v-4.51c0-2.91 2.057-4.084 4.571-2.636l3.901 2.255c2.514 1.448 2.514 3.825 0 5.272z"></path>
        </symbol>
        <symbol id="icon-pauseButton" viewBox="0 0 32 32">
            <path fill="#ff7e3a" style="fill: var(#ff7e3a)" d="M31.435 16.389c0-8.577-6.953-15.529-15.529-15.529s-15.529 6.953-15.529 15.529c0 8.577 6.953 15.529 15.529 15.529s15.529-6.953 15.529-15.529zM10.082 12.507c0-1.072 0.869-1.941 1.941-1.941s1.941 0.869 1.941 1.941v7.765c0 1.072-0.869 1.941-1.941 1.941s-1.941-0.869-1.941-1.941v-7.765zM19.787 10.566c1.072 0 1.941 0.869 1.941 1.941v7.765c0 1.072-0.869 1.941-1.941 1.941s-1.941-0.869-1.941-1.941v-7.765c0-1.072 0.869-1.941 1.941-1.941z"></path>
        </symbol>
        <symbol id="icon-right-nextmusic" viewBox="0 0 32 32">
            <path fill="#ff7e3a" style="fill: var(#ff7e3a)" d="M5.964 9.771v12.25c0 2.509 2.726 4.083 4.902 2.829l5.312-3.059 5.312-3.072c2.176-1.254 2.176-4.39 0-5.645l-5.312-3.072-5.312-3.059c-2.176-1.254-4.902 0.307-4.902 2.829z"></path>
            <path fill="#ff7e3a" style="fill: var(#ff7e3a)" d="M27.058 24.76c-0.525 0-0.96-0.435-0.96-0.96v-15.821c0-0.525 0.435-0.96 0.96-0.96s0.96 0.435 0.96 0.96v15.821c0 0.525-0.422 0.96-0.96 0.96z"></path>
        </symbol>
        <symbol id="icon-volume-high" viewBox="0 0 35 32">
            <path fill="#ff7e3a" style="fill: var(#ff7e3a)" d="M25.844 22c-0.225 0-0.437-0.063-0.634-0.189-0.465-0.316-0.563-0.909-0.211-1.326 2.21-2.64 2.21-6.328 0-8.968-0.352-0.417-0.253-1.011 0.211-1.326s1.126-0.227 1.478 0.189c2.759 3.309 2.759 7.933 0 11.242-0.211 0.253-0.521 0.379-0.845 0.379z"></path>
            <path fill="#ff7e3a" style="fill: var(#ff7e3a)" d="M28.421 25.158c-0.225 0-0.436-0.063-0.633-0.189-0.465-0.316-0.563-0.909-0.211-1.326 3.759-4.497 3.759-10.787 0-15.284-0.352-0.417-0.253-1.011 0.211-1.326s1.126-0.227 1.478 0.189c4.322 5.166 4.322 12.392 0 17.558-0.197 0.253-0.521 0.379-0.845 0.379z"></path>
            <path fill="#ff7e3a" style="fill: var(#ff7e3a)" d="M20.241 5.617c-1.577-0.783-3.59-0.581-5.646 0.568l-4.111 2.312c-0.282 0.152-0.605 0.24-0.929 0.24h-2.013c-3.407 0-5.279 1.68-5.279 4.737v5.053c0 3.057 1.872 4.737 5.279 4.737h2.013c0.324 0 0.648 0.088 0.929 0.24l4.111 2.312c1.239 0.695 2.45 1.036 3.576 1.036 0.732 0 1.436-0.152 2.070-0.467 1.563-0.783 2.436-2.413 2.436-4.585v-11.596c0-2.173-0.873-3.802-2.436-4.585z"></path>
        </symbol>
        <symbol id="icon-volume-muted" viewBox="0 0 35 32">
            <path fill="#3C3C43" style="fill: var(#3C3C43)" d="M25.844 22c-0.225 0-0.437-0.063-0.634-0.189-0.465-0.316-0.563-0.909-0.211-1.326 2.21-2.64 2.21-6.328 0-8.968-0.352-0.417-0.253-1.011 0.211-1.326s1.126-0.227 1.478 0.189c2.759 3.309 2.759 7.933 0 11.242-0.211 0.253-0.521 0.379-0.845 0.379z"></path>
            <path fill="#3C3C43" style="fill: var(#3C3C43)" d="M28.421 25.158c-0.225 0-0.436-0.063-0.633-0.189-0.465-0.316-0.563-0.909-0.211-1.326 3.759-4.497 3.759-10.787 0-15.284-0.352-0.417-0.253-1.011 0.211-1.326s1.126-0.227 1.478 0.189c4.322 5.166 4.322 12.392 0 17.558-0.197 0.253-0.521 0.379-0.845 0.379z"></path>
            <path fill="#3C3C43" style="fill: var(#3C3C43)" d="M20.241 5.617c-1.577-0.783-3.59-0.581-5.646 0.568l-4.111 2.312c-0.282 0.152-0.605 0.24-0.929 0.24h-2.013c-3.407 0-5.279 1.68-5.279 4.737v5.053c0 3.057 1.872 4.737 5.279 4.737h2.013c0.324 0 0.648 0.088 0.929 0.24l4.111 2.312c1.239 0.695 2.45 1.036 3.576 1.036 0.732 0 1.436-0.152 2.070-0.467 1.563-0.783 2.436-2.413 2.436-4.585v-11.596c0-2.173-0.873-3.802-2.436-4.585z"></path>
        </symbol>
        <!-- Icon Settings -->
        <symbol id="icon-aboutus" viewBox="0 0 30 32">
            <path fill="#5a5d6c" style="fill: var(--color3, #5a5d6c)" d="M13.667 18.898c0 0.104 0.085 0.189 0.189 0.189h1.984c0.104 0 0.189-0.084 0.189-0.189 0.005-0.513 0.064-0.944 0.177-1.293 0.118-0.354 0.298-0.661 0.539-0.922 0.246-0.261 0.56-0.513 0.943-0.755 0.435-0.266 0.811-0.569 1.128-0.908s0.56-0.726 0.731-1.162c0.175-0.436 0.262-0.93 0.262-1.482 0-0.818-0.194-1.525-0.582-2.121-0.383-0.6-0.92-1.063-1.61-1.387-0.686-0.324-1.48-0.487-2.383-0.487-0.828 0-1.584 0.155-2.27 0.465-0.681 0.31-1.229 0.775-1.646 1.395-0.201 0.303-0.356 0.641-0.464 1.015-0.2 0.69 0.404 1.294 1.123 1.294h0.028c0.665 0 1.147-0.57 1.512-1.126 0.199-0.3 0.447-0.523 0.745-0.668 0.303-0.15 0.622-0.225 0.958-0.225 0.364 0 0.693 0.077 0.986 0.232 0.298 0.155 0.534 0.373 0.709 0.654s0.262 0.613 0.262 0.995c0 0.339-0.066 0.646-0.199 0.922-0.132 0.271-0.314 0.518-0.546 0.741-0.227 0.218-0.485 0.419-0.773 0.603-0.421 0.266-0.778 0.559-1.071 0.879-0.293 0.315-0.52 0.731-0.681 1.249-0.156 0.518-0.236 1.215-0.241 2.092z"></path>
            <path fill="#5a5d6c" style="fill: var(--color3, #5a5d6c)" d="M13.802 23.154c0.307 0.31 0.674 0.465 1.099 0.465 0.284 0 0.541-0.070 0.773-0.211 0.236-0.145 0.426-0.339 0.567-0.581 0.146-0.242 0.22-0.511 0.22-0.806 0-0.436-0.156-0.809-0.468-1.118-0.307-0.31-0.671-0.465-1.092-0.465-0.426 0-0.792 0.155-1.099 0.465s-0.461 0.683-0.461 1.118c0 0.445 0.154 0.823 0.461 1.133z"></path>
            <path fill="#5a5d6c" style="fill: var(--color3, #5a5d6c)" d="M30.476 16c0-8.416-6.822-15.238-15.238-15.238s-15.238 6.822-15.238 15.238c0 8.416 6.822 15.238 15.238 15.238s15.238-6.822 15.238-15.238zM28.19 16c0 7.153-5.799 12.952-12.952 12.952s-12.952-5.799-12.952-12.952c0-7.153 5.799-12.952 12.952-12.952s12.952 5.799 12.952 12.952z"></path>
        </symbol>
        <symbol id="icon-copylink" viewBox="0 0 32 32">
            <path fill="#5a5d6c" style="fill: var(--color3, #5a5d6c)" d="M26.371 5.629c-2.256-2.256-5.915-2.256-8.171 0l-2.514 2.514c-0.521 0.521-1.365 0.521-1.886 0s-0.521-1.365 0-1.886l2.514-2.514c3.298-3.298 8.644-3.298 11.942 0s3.298 8.644 0 11.942l-2.514 2.514c-0.521 0.521-1.365 0.521-1.886 0s-0.521-1.365 0-1.886l2.514-2.514c2.256-2.256 2.256-5.915 0-8.171z"></path>
            <path fill="#5a5d6c" style="fill: var(--color3, #5a5d6c)" d="M8.143 13.8c0.521 0.521 0.521 1.365 0 1.886l-2.514 2.514c-2.256 2.256-2.256 5.915 0 8.171s5.915 2.256 8.171 0l2.514-2.514c0.521-0.521 1.365-0.521 1.886 0s0.521 1.365 0 1.886l-2.514 2.514c-3.298 3.298-8.644 3.298-11.942 0s-3.298-8.644 0-11.942l2.514-2.514c0.521-0.521 1.365-0.521 1.886 0z"></path>
            <path fill="#5a5d6c" style="fill: var(--color3, #5a5d6c)" d="M11.286 18.828c-0.521 0.521-0.521 1.365 0 1.886s1.365 0.521 1.886 0l7.542-7.543c0.521-0.521 0.521-1.365 0-1.886s-1.365-0.521-1.886 0l-7.543 7.542z"></path>
        </symbol>
        <symbol id="icon-darkmode" viewBox="0 0 32 32">
            <path fill="#5a5d6c" style="fill: var(--color3, #5a5d6c)" d="M26.909 3.369c-0-0-0-0-0.001-0-2.401-1.596-5.283-2.526-8.382-2.526-8.371 0-15.158 6.786-15.158 15.158s6.786 15.158 15.158 15.158c3.099 0 5.981-0.93 8.382-2.526 0-0 0-0 0.001-0 0.013-0.009 0.026-0.017 0.039-0.026 0.317-0.213 0.626-0.437 0.926-0.672 0.77-0.604 0.052-1.828-0.926-1.828-0.174 0-0.346-0.004-0.518-0.013-0.087-0.005-0.174-0.010-0.261-0.017-0.007-0.001-0.014-0.001-0.021-0.002-5.207-0.407-9.306-4.762-9.306-10.074s4.099-9.667 9.306-10.074c0.007-0.001 0.014-0.001 0.021-0.002 0.087-0.007 0.173-0.012 0.261-0.017 0.171-0.009 0.344-0.013 0.518-0.013 0.978 0 1.696-1.225 0.926-1.828-0.3-0.235-0.609-0.459-0.926-0.672-0.013-0.009-0.026-0.017-0.039-0.026zM22.738 4.087c-4.907 1.734-8.422 6.413-8.422 11.913s3.515 10.179 8.422 11.913c-1.317 0.465-2.734 0.718-4.212 0.718-6.976 0-12.632-5.655-12.632-12.632s5.655-12.632 12.632-12.632c1.478 0 2.895 0.253 4.212 0.718z"></path>
        </symbol>
        <symbol id="icon-heartadd" viewBox="0 0 32 32">
            <path fill="#5a5d6c" style="fill: var(--color3, #5a5d6c)" d="M28.4 2.4c0-0.663-0.537-1.2-1.2-1.2s-1.2 0.537-1.2 1.2v2h-2c-0.663 0-1.2 0.537-1.2 1.2s0.537 1.2 1.2 1.2h2v2c0 0.663 0.537 1.2 1.2 1.2s1.2-0.537 1.2-1.2v-2h2c0.663 0 1.2-0.537 1.2-1.2s-0.537-1.2-1.2-1.2h-2v-2z"></path>
            <path fill="#5a5d6c" style="fill: var(--color3, #5a5d6c)" d="M17.188 5.32c1.041-0.734 2.68-1.679 4.571-2.004-0.592 0.581-0.959 1.39-0.959 2.284 0 0.154 0.011 0.306 0.032 0.454-0.859 0.328-1.64 0.789-2.26 1.227-1.527 1.078-3.616 1.078-5.143 0-1.136-0.801-2.814-1.681-4.511-1.681-0.117 0-0.232 0.001-0.346 0.003-4.069 0.060-7.1 4.355-5.929 9.315 0.601 2.543 2.783 5.243 5.622 7.719 2.762 2.408 5.792 4.303 7.512 5.3l-1.203 2.076c-3.568-2.068-12.705-7.93-14.267-14.544-1.41-5.972 2.169-12.177 8.23-12.266 0.125-0.002 0.252-0.003 0.381-0.003 2.44 0 4.618 1.219 5.895 2.12 0.698 0.492 1.678 0.492 2.376 0z"></path>
            <path fill="#5a5d6c" style="fill: var(--color3, #5a5d6c)" d="M17.427 30.013c-0.891 0.516-1.962 0.516-2.854 0l1.203-2.076c0.147 0.085 0.3 0.085 0.447 0l1.204 2.076z"></path>
            <path fill="#5a5d6c" style="fill: var(--color3, #5a5d6c)" d="M17.427 30.013l-1.204-2.076c1.72-0.997 4.75-2.892 7.512-5.3 2.839-2.476 5.022-5.176 5.622-7.719 0.319-1.352 0.326-2.654 0.085-3.835 0.591-0.581 0.957-1.389 0.957-2.282 0.274 0 0.541-0.034 0.795-0.099 0.836 2.035 1.053 4.419 0.499 6.768-1.562 6.613-10.699 12.476-14.267 14.544z"></path>
        </symbol>
        <symbol id="icon-account" viewBox="0 0 30 32">
            <path fill="#5a5d6c" style="fill: var(--color3, #5a5d6c)" d="M15.238 17.143c-3.682 0-6.667-2.985-6.667-6.667s2.985-6.667 6.667-6.667c3.682 0 6.667 2.985 6.667 6.667s-2.985 6.667-6.667 6.667zM15.238 14.857c2.42 0 4.381-1.961 4.381-4.381s-1.961-4.381-4.381-4.381c-2.42 0-4.381 1.961-4.381 4.381s1.961 4.381 4.381 4.381z"></path>
            <path fill="#5a5d6c" style="fill: var(--color3, #5a5d6c)" d="M7.059 28.859c-4.244-2.705-7.059-7.454-7.059-12.859 0-8.416 6.822-15.238 15.238-15.238s15.238 6.822 15.238 15.238c0 5.407-2.816 10.155-7.061 12.86-0.79 0.558-1.738 1.034-2.805 1.404-1.671 0.63-3.481 0.974-5.372 0.974s-3.7-0.344-5.37-0.973c-1.068-0.37-2.018-0.846-2.809-1.405zM10.661 28.12c1.3 0.444 2.861 0.718 4.577 0.718s3.279-0.274 4.579-0.718c0.824-0.311 1.608-0.704 2.341-1.169 1.129-0.814 1.46-1.614 1.46-2.151 0-0.614-0.434-1.575-2.004-2.505-1.52-0.901-3.77-1.533-6.377-1.533s-4.856 0.631-6.377 1.533c-1.57 0.931-2.004 1.891-2.004 2.505 0 0.536 0.331 1.336 1.459 2.15 0.735 0.465 1.519 0.859 2.344 1.171zM4.759 23.614c0.936-2.926 5.272-5.138 10.479-5.138s9.543 2.212 10.479 5.138c1.555-2.137 2.473-4.768 2.473-7.614 0-7.153-5.799-12.952-12.952-12.952s-12.952 5.799-12.952 12.952c0 2.846 0.918 5.477 2.473 7.614z"></path>
        </symbol>
        <symbol id="icon-legal" viewBox="0 0 32 32">
            <path fill="#5a5d6c" style="fill: var(--color3, #5a5d6c)" d="M2.849 15.712c-0.469-0.469-1.228-0.469-1.697 0s-0.469 1.228 0 1.697l5.6 5.6c0.469 0.469 1.228 0.469 1.697 0s0.469-1.228 0-1.697l-5.6-5.6z"></path>
            <path fill="#5a5d6c" style="fill: var(--color3, #5a5d6c)" d="M24.849 7.409c0.458-0.458 0.47-1.196 0.027-1.669l-0.003-0.003-0.006-0.006-0.020-0.021c-0.017-0.018-0.042-0.043-0.073-0.075-0.062-0.064-0.151-0.155-0.262-0.265-0.222-0.22-0.536-0.521-0.905-0.846-0.711-0.626-1.73-1.434-2.733-1.865-0.753-0.324-1.632-0.42-2.437-0.426-0.824-0.007-1.674 0.081-2.425 0.194-0.755 0.114-1.436 0.258-1.927 0.373-0.246 0.058-0.446 0.108-0.587 0.145-0.070 0.018-0.125 0.033-0.164 0.044l-0.064 0.018c-0.196 0.056-0.375 0.161-0.519 0.305l-8.8 8.8c-0.469 0.469-0.469 1.228 0 1.697l6.4 6.4c0.469 0.469 1.228 0.469 1.697 0l1.952-1.952 10.351 10.352c1.573 1.573 4.124 1.573 5.697 0s1.573-4.124 0-5.697l-10.352-10.351 5.152-5.151zM6.497 12.96l7.724-7.724c0.111-0.028 0.25-0.063 0.412-0.101 0.447-0.105 1.062-0.235 1.737-0.336 0.679-0.102 1.394-0.173 2.048-0.167 0.673 0.005 1.183 0.091 1.509 0.231 0.633 0.272 1.415 0.863 2.095 1.462 0.095 0.084 0.186 0.166 0.273 0.245l-11.094 11.093-4.703-4.703zM15.697 16.56l2.303-2.303 10.352 10.351c0.636 0.636 0.636 1.667 0 2.303s-1.667 0.636-2.303 0l-10.351-10.351z"></path>
        </symbol>
        <symbol id="icon-logout" viewBox="0 0 30 32">
            <path fill="#5a5d6c" style="fill: var(--color3, #5a5d6c)" d="M7.619 1.143c-3.998 0-7.238 3.241-7.238 7.238v15.238c0 3.998 3.241 7.238 7.238 7.238h3.048c3.156 0 5.714-2.558 5.714-5.714 0-0.631-0.512-1.143-1.143-1.143s-1.143 0.512-1.143 1.143c0 1.893-1.535 3.429-3.429 3.429h-3.048c-2.735 0-4.952-2.217-4.952-4.952v-15.238c0-2.735 2.217-4.952 4.952-4.952h3.048c1.894 0 3.429 1.535 3.429 3.429 0 0.631 0.512 1.143 1.143 1.143s1.143-0.512 1.143-1.143c0-3.156-2.558-5.714-5.714-5.714h-3.048z"></path>
            <path fill="#5a5d6c" style="fill: var(--color3, #5a5d6c)" d="M17.57 12.144c0.446 0.446 0.446 1.17 0 1.616l-1.097 1.097h12.479c0.631 0 1.143 0.512 1.143 1.143s-0.512 1.143-1.143 1.143h-12.479l1.097 1.097c0.446 0.446 0.446 1.17 0 1.616s-1.17 0.446-1.616 0l-3.048-3.048c-0.11-0.11-0.192-0.236-0.248-0.371-0.055-0.132-0.085-0.276-0.087-0.427l-0-0.011 0-0.011c0.003-0.289 0.114-0.577 0.335-0.798l3.048-3.048c0.446-0.446 1.17-0.446 1.616 0z"></path>
        </symbol>
        <symbol id="icon-minus" viewBox="0 0 32 32">
            <path fill="#5a5d6c" style="fill: var(--color3, #5a5d6c)" d="M2 14.5c-0.828 0-1.5 0.672-1.5 1.5s0.672 1.5 1.5 1.5h28c0.828 0 1.5-0.672 1.5-1.5s-0.672-1.5-1.5-1.5h-28z"></path>
        </symbol>
        <symbol id="icon-artistPanel" viewBox="0 0 32 32">
            <path fill="#5a5d6c" style="fill: var(--color3, #5a5d6c)" d="M5.333 0.762h21.333c2.946 0 5.333 2.388 5.333 5.333s-2.388 5.333-5.333 5.333h-21.333c-2.946 0-5.333-2.388-5.333-5.333s2.388-5.333 5.333-5.333zM26.667 3.048h-21.333c-1.683 0-3.048 1.364-3.048 3.048s1.364 3.048 3.048 3.048h21.333c1.683 0 3.048-1.364 3.048-3.048s-1.364-3.048-3.048-3.048z"></path>
            <path fill="#5a5d6c" style="fill: var(--color3, #5a5d6c)" d="M1.524 25.143v-6.095c0-3.366 2.729-6.095 6.095-6.095s6.095 2.729 6.095 6.095v6.095c0 3.366-2.729 6.095-6.095 6.095s-6.095-2.729-6.095-6.095zM3.81 19.048v6.095c0 2.104 1.706 3.81 3.81 3.81s3.81-1.706 3.81-3.81v-6.095c0-2.104-1.706-3.81-3.81-3.81s-3.81 1.706-3.81 3.81z"></path>
            <path fill="#5a5d6c" style="fill: var(--color3, #5a5d6c)" d="M25.905 12.952h-4.571c-3.366 0-6.095 2.729-6.095 6.095v6.095c0 3.366 2.729 6.095 6.095 6.095h4.571c3.366 0 6.095-2.729 6.095-6.095v-6.095c0-3.366-2.729-6.095-6.095-6.095zM21.333 15.238h4.571c2.104 0 3.81 1.706 3.81 3.81v6.095c0 2.104-1.706 3.81-3.81 3.81h-4.571c-2.104 0-3.81-1.706-3.81-3.81v-6.095c0-2.104 1.706-3.81 3.81-3.81z"></path>
        </symbol>
        <symbol id="icon-playlistadd" viewBox="0 0 32 32">
            <path fill="#5a5d6c" style="fill: var(--color3, #5a5d6c)" d="M0.381 3.81c0-0.631 0.512-1.143 1.143-1.143h25.905c0.631 0 1.143 0.512 1.143 1.143s-0.512 1.143-1.143 1.143h-25.905c-0.631 0-1.143-0.512-1.143-1.143z"></path>
            <path fill="#5a5d6c" style="fill: var(--color3, #5a5d6c)" d="M24.381 14.857c0.631 0 1.143 0.512 1.143 1.143v4.952h4.952c0.631 0 1.143 0.512 1.143 1.143s-0.512 1.143-1.143 1.143h-4.952v4.952c0 0.631-0.512 1.143-1.143 1.143s-1.143-0.512-1.143-1.143v-4.952h-4.952c-0.631 0-1.143-0.512-1.143-1.143s0.512-1.143 1.143-1.143h4.952v-4.952c0-0.631 0.512-1.143 1.143-1.143z"></path>
            <path fill="#5a5d6c" style="fill: var(--color3, #5a5d6c)" d="M1.524 9.524c-0.631 0-1.143 0.512-1.143 1.143s0.512 1.143 1.143 1.143h25.905c0.631 0 1.143-0.512 1.143-1.143s-0.512-1.143-1.143-1.143h-25.905z"></path>
            <path fill="#5a5d6c" style="fill: var(--color3, #5a5d6c)" d="M0.381 18.286c0-0.631 0.512-1.143 1.143-1.143h13.714c0.631 0 1.143 0.512 1.143 1.143s-0.512 1.143-1.143 1.143h-13.714c-0.631 0-1.143-0.512-1.143-1.143z"></path>
            <path fill="#5a5d6c" style="fill: var(--color3, #5a5d6c)" d="M1.524 24.762c-0.631 0-1.143 0.512-1.143 1.143s0.512 1.143 1.143 1.143h13.714c0.631 0 1.143-0.512 1.143-1.143s-0.512-1.143-1.143-1.143h-13.714z"></path>
        </symbol>
        <symbol id="icon-plus" viewBox="0 0 32 32">
            <path fill="#5a5d6c" style="fill: var(--color3, #5a5d6c)" d="M17.412 2.824c0-0.78-0.632-1.412-1.412-1.412s-1.412 0.632-1.412 1.412v11.765h-11.765c-0.78 0-1.412 0.632-1.412 1.412s0.632 1.412 1.412 1.412h11.765v11.765c0 0.78 0.632 1.412 1.412 1.412s1.412-0.632 1.412-1.412v-11.765h11.765c0.78 0 1.412-0.632 1.412-1.412s-0.632-1.412-1.412-1.412h-11.765v-11.765z"></path>
        </symbol>
        <symbol id="icon-trash" viewBox="0 0 27 32">
            <path fill="#5a5d6c" style="fill: var(--color3, #5a5d6c)" d="M5.946 6.029l0.043-0.006c0.992-0.131 1.837-0.786 2.212-1.714 0.773-1.914 2.631-3.167 4.695-3.167h2.053c2.092 0 3.975 1.27 4.758 3.209l0.138 0.341c0.286 0.708 0.921 1.217 1.675 1.341 0.087 0.014 0.171 0.038 0.25 0.071 1.198 0.094 2.25 0.187 3.007 0.257 0.387 0.036 0.698 0.066 0.912 0.087l0.333 0.033c0.628 0.064 1.084 0.626 1.020 1.254s-0.627 1.085-1.255 1.020l-0.322-0.032c-0.21-0.021-0.517-0.050-0.9-0.086-0.766-0.071-1.837-0.166-3.056-0.26-2.446-0.19-5.457-0.378-7.795-0.378s-5.35 0.187-7.795 0.378c-1.219 0.095-2.29 0.189-3.055 0.26-0.383 0.036-0.689 0.065-0.9 0.086l-0.323 0.032c0 0 0 0-0.001-0.011l0.001 0.011c-0.628 0.064-1.189-0.392-1.254-1.020s0.392-1.189 1.020-1.254l0.333-0.033c0.214-0.021 0.525-0.051 0.912-0.087 0.757-0.070 1.809-0.163 3.007-0.257 0.090-0.037 0.186-0.063 0.286-0.076zM12.896 3.429c-1.132 0-2.152 0.687-2.576 1.737-0.092 0.228-0.2 0.447-0.322 0.656 1.294-0.065 2.577-0.107 3.716-0.107 1.264 0 2.705 0.052 4.142 0.129-0.047-0.096-0.091-0.194-0.131-0.294l-0.138-0.341c-0.435-1.076-1.479-1.78-2.639-1.78h-2.053z"></path>
            <path fill="#5a5d6c" style="fill: var(--color3, #5a5d6c)" d="M23.996 11.528c0.055-0.629-0.411-1.183-1.040-1.238s-1.183 0.411-1.238 1.040l-1.227 14.11c-0.154 1.772-1.637 3.132-3.416 3.132h-7.332c-1.836 0-3.346-1.446-3.425-3.28l-0.605-13.913c-0.027-0.631-0.561-1.12-1.191-1.092s-1.12 0.561-1.092 1.191l0.605 13.913c0.133 3.056 2.65 5.466 5.709 5.466h7.332c2.964 0 5.436-2.266 5.693-5.219l1.227-14.11z"></path>
            <path fill="#5a5d6c" style="fill: var(--color3, #5a5d6c)" d="M9.143 24c-0.631 0-1.143 0.512-1.143 1.143s0.512 1.143 1.143 1.143h9.143c0.631 0 1.143-0.512 1.143-1.143s-0.512-1.143-1.143-1.143h-9.143z"></path>
        </symbol>
    </defs>
</svg>