<svg width="26" height="24" viewBox="0 0 26 24" fill="none" xmlns="http://www.w3.org/2000/svg">
<path d="M2.04346 18.6668H15.3527" stroke="#3C3C43" stroke-opacity="0.6" stroke-width="1.8" stroke-linecap="round"/>
<path d="M11.3599 5.33319H24.6691" stroke="#3C3C43" stroke-opacity="0.6" stroke-width="1.8" stroke-linecap="round"/>
<path d="M25.1 18.6667C25.1 21.1167 23.1179 23.1 20.6763 23.1C18.2347 23.1 16.2527 21.1167 16.2527 18.6667C16.2527 16.2167 18.2347 14.2333 20.6763 14.2333C23.1179 14.2333 25.1 16.2167 25.1 18.6667Z" stroke="#3C3C43" stroke-opacity="0.6" stroke-width="1.8"/>
<path d="M10.4599 5.33333C10.4599 7.78333 8.47781 9.76667 6.03621 9.76667C3.59461 9.76667 1.61252 7.78333 1.61252 5.33333C1.61252 2.88333 3.59461 0.9 6.03621 0.9C8.47781 0.9 10.4599 2.88333 10.4599 5.33333Z" stroke="#3C3C43" stroke-opacity="0.6" stroke-width="1.8"/>
</svg>
