<svg width="18" height="18" viewBox="0 0 18 18" fill="none" xmlns="http://www.w3.org/2000/svg">
<path d="M14.8336 3.16638C13.5644 1.89718 11.5067 1.89718 10.2375 3.16638L8.82324 4.58059C8.53034 4.87349 8.05547 4.87349 7.76258 4.58059C7.46968 4.2877 7.46968 3.81283 7.76258 3.51993L9.17679 2.10572C11.0318 0.25073 14.0393 0.25073 15.8943 2.10572C17.7493 3.96071 17.7493 6.96824 15.8943 8.82323L14.4801 10.2374C14.1872 10.5303 13.7123 10.5303 13.4194 10.2374C13.1265 9.94456 13.1265 9.46968 13.4194 9.17679L14.8336 7.76257C16.1028 6.49337 16.1028 4.43558 14.8336 3.16638Z" fill="#5A5D6C"/>
<path d="M4.58059 7.76258C4.87349 8.05547 4.87349 8.53034 4.58059 8.82324L3.16638 10.2375C1.89718 11.5067 1.89718 13.5644 3.16638 14.8336C4.43558 16.1028 6.49337 16.1028 7.76257 14.8336L9.17679 13.4194C9.46968 13.1265 9.94456 13.1265 10.2374 13.4194C10.5303 13.7123 10.5303 14.1872 10.2374 14.4801L8.82323 15.8943C6.96824 17.7493 3.96071 17.7493 2.10572 15.8943C0.25073 14.0393 0.25073 11.0318 2.10572 9.17679L3.51993 7.76258C3.81283 7.46968 4.2877 7.46968 4.58059 7.76258Z" fill="#5A5D6C"/>
<path d="M6.34833 10.591C6.05544 10.8839 6.05544 11.3588 6.34833 11.6517C6.64123 11.9446 7.1161 11.9446 7.40899 11.6517L11.6516 7.40903C11.9445 7.11613 11.9445 6.64126 11.6516 6.34837C11.3587 6.05547 10.8839 6.05547 10.591 6.34837L6.34833 10.591Z" fill="#5A5D6C"/>
</svg>
