<svg width="20" height="19" viewBox="0 0 20 19" fill="none" xmlns="http://www.w3.org/2000/svg">
<path d="M17.75 1C17.75 0.585786 17.4142 0.25 17 0.25C16.5858 0.25 16.25 0.585786 16.25 1V2.25H15C14.5858 2.25 14.25 2.58579 14.25 3C14.25 3.41421 14.5858 3.75 15 3.75H16.25V5C16.25 5.41421 16.5858 5.75 17 5.75C17.4142 5.75 17.75 5.41421 17.75 5V3.75H19C19.4142 3.75 19.75 3.41421 19.75 3C19.75 2.58579 19.4142 2.25 19 2.25H17.75V1Z" fill="#5A5D6C"/>
<path d="M10.7424 2.8248C11.3928 2.36589 12.4173 1.77512 13.5995 1.57218C13.2295 1.93513 13 2.44076 13 3C13 3.09633 13.0068 3.19108 13.02 3.28377C12.4834 3.48891 11.9948 3.77693 11.6072 4.05044C10.6527 4.72389 9.34735 4.72389 8.39284 4.05044C7.68295 3.54957 6.63436 3 5.57317 3C5.49992 3 5.42793 3.00053 5.35718 3.00157C2.81395 3.03899 0.919395 5.7236 1.65137 8.82323C2.02675 10.4128 3.39088 12.1004 5.16542 13.6477C6.89163 15.1528 8.78516 16.3369 9.8604 16.9601L9.10824 18.2579C6.87811 16.9654 1.16765 13.3014 0.191526 9.16797C-0.689884 5.43556 1.54708 1.55747 5.33511 1.50174C5.41331 1.50059 5.49265 1.5 5.57317 1.5C7.09809 1.5 8.45947 2.26167 9.2576 2.82479C9.69363 3.13244 10.3064 3.13244 10.7424 2.8248Z" fill="#5A5D6C"/>
<path d="M10.8918 18.2579C10.3347 18.5807 9.66526 18.5807 9.10824 18.2579L9.8604 16.9601C9.95222 17.0133 10.0478 17.0133 10.1396 16.9601L10.8918 18.2579Z" fill="#5A5D6C"/>
<path d="M10.8918 18.2579L10.1396 16.9601C11.2148 16.3369 13.1084 15.1528 14.8346 13.6477C16.6091 12.1004 17.9732 10.4128 18.3486 8.82323C18.5481 7.97842 18.5525 7.16444 18.4018 6.42648C18.771 6.06362 19 5.55855 19 5C19.1715 5 19.3379 4.97843 19.4967 4.93784C20.0194 6.20948 20.1551 7.69999 19.8085 9.16797C18.8324 13.3014 13.1219 16.9654 10.8918 18.2579Z" fill="#5A5D6C"/>
</svg>
