<svg aria-hidden="true" style="position: absolute; width: 0; height: 0; overflow: hidden;" version="1.1" xmlns="http://www.w3.org/2000/svg" xmlns:xlink="http://www.w3.org/1999/xlink">
    <defs>
        <symbol id="icon-pencil" viewBox="0 0 512 512">
            <path d="M471.6 21.7c-21.9-21.9-57.3-21.9-79.2 0L362.3 51.7l97.9 97.9 30.1-30.1c21.9-21.9 21.9-57.3 0-79.2L471.6 21.7zm-299.2 220c-6.1 6.1-10.8 13.6-13.5 21.9l-29.6 88.8c-2.9 8.6-.6 18.1 5.8 24.6s15.9 8.7 24.6 5.8l88.8-29.6c8.2-2.7 15.7-7.4 21.9-13.5L437.7 172.3 339.7 74.3 172.4 241.7zM96 64C43 64 0 107 0 160L0 416c0 53 43 96 96 96l256 0c53 0 96-43 96-96l0-96c0-17.7-14.3-32-32-32s-32 14.3-32 32l0 96c0 17.7-14.3 32-32 32L96 448c-17.7 0-32-14.3-32-32l0-256c0-17.7 14.3-32 32-32l96 0c17.7 0 32-14.3 32-32s-14.3-32-32-32L96 64z" />
        </symbol>
        <symbol id="icon-music" viewBox="0 0 29 27">
            <path fillRule="evenodd" clipRule="evenodd" d="M14.2559 0.90625C11.7878 0.90625 9.78711 2.90698 9.78711 5.375V17.1562H4.91211C2.21972 17.1562 0.0371094 19.3389 0.0371094 22.0312C0.0371094 24.7236 2.21972 26.9062 4.91211 26.9062H6.13086C9.49634 26.9062 12.2246 24.178 12.2246 20.8125V9.03125H26.0371V15.5312H20.7559C18.2878 15.5312 16.2871 17.532 16.2871 20C16.2871 22.468 18.2878 24.4687 20.7559 24.4687H22.3809C25.7463 24.4687 28.4746 21.7405 28.4746 18.375V5.375C28.4746 2.90698 26.4739 0.90625 24.0059 0.90625H14.2559ZM2.47461 22.0312C2.47461 20.6851 3.56591 19.5937 4.91211 19.5937H9.78711V20.8125C9.78711 22.8318 8.15015 24.4687 6.13086 24.4687H4.91211C3.56591 24.4687 2.47461 23.3774 2.47461 22.0312ZM24.0059 3.34375C25.1277 3.34375 26.0371 4.25317 26.0371 5.375V6.59375H12.2246V5.375C12.2246 4.25317 13.134 3.34375 14.2559 3.34375H24.0059ZM18.7246 20C18.7246 18.8782 19.634 17.9687 20.7559 17.9687H26.0371V18.375C26.0371 20.3943 24.4001 22.0312 22.3809 22.0312H20.7559C19.634 22.0312 18.7246 21.1218 18.7246 20Z" />
        </symbol>
        <symbol id="icon-ellipsis" viewBox="0 0 128 32">
            <path d="M38 16c0-3.713-1.475-7.274-4.101-9.899s-6.186-4.101-9.899-4.101-7.274 1.475-9.899 4.101c-2.626 2.625-4.101 6.186-4.101 9.899s1.475 7.274 4.101 9.899c2.625 2.626 6.186 4.101 9.899 4.101s7.274-1.475 9.899-4.101c2.626-2.625 4.101-6.186 4.101-9.899zM78 16c0-3.713-1.475-7.274-4.1-9.899s-6.186-4.101-9.9-4.101-7.274 1.475-9.9 4.101c-2.626 2.625-4.1 6.186-4.1 9.899s1.475 7.274 4.1 9.899c2.626 2.626 6.186 4.101 9.9 4.101s7.274-1.475 9.9-4.101c2.626-2.625 4.1-6.186 4.1-9.899zM104 30c3.713 0 7.274-1.475 9.9-4.101s4.1-6.186 4.1-9.899-1.475-7.274-4.1-9.899c-2.626-2.626-6.186-4.101-9.9-4.101s-7.274 1.475-9.9 4.101c-2.626 2.625-4.1 6.186-4.1 9.899s1.475 7.274 4.1 9.899c2.626 2.626 6.186 4.101 9.9 4.101z"></path>
        </symbol>
        <symbol id="icon-verified-label" viewBox="0 0 23 23">
            <path stroke-width="2" stroke="#000000" fill="none" stroke-linecap="round" stroke-linejoin="round" d="M9 12.75 11.25 15 15 9.75M21 12c0 1.268-.63 2.39-1.593 3.068a3.745 3.745 0 0 1-1.043 3.296 3.745 3.745 0 0 1-3.296 1.043A3.745 3.745 0 0 1 12 21c-1.268 0-2.39-.63-3.068-1.593a3.746 3.746 0 0 1-3.296-1.043 3.745 3.745 0 0 1-1.043-3.296A3.745 3.745 0 0 1 3 12c0-1.268.63-2.39 1.593-3.068a3.745 3.745 0 0 1 1.043-3.296 3.746 3.746 0 0 1 3.296-1.043A3.746 3.746 0 0 1 12 3c1.268 0 2.39.63 3.068 1.593a3.746 3.746 0 0 1 3.296 1.043 3.746 3.746 0 0 1 1.043 3.296A3.745 3.745 0 0 1 21 12Z" />
        </symbol>
        <!-- Icon Navigation -->
        <symbol id="icon-arrow-left" viewBox="0 0 32 32">
            <path fill="none" stroke-width="3" stroke-miterlimit="10" stroke-linecap="round" stroke-linejoin="round" d="M20 26.56l-8.693-8.693c-1.027-1.027-1.027-2.707 0-3.733l8.693-8.693"></path>
        </symbol>
        <symbol id="icon-arrow-right" viewBox="0 0 32 32">
            <path fill="none" stroke-width="3" stroke-miterlimit="10" stroke-linecap="round" stroke-linejoin="round" d="M11.88 26.56l8.693-8.693c1.027-1.027 1.027-2.707 0-3.733l-8.693-8.693"></path>
        </symbol>
        <!-- Icon Searchbar -->
        <symbol id="icon-filter-searchbar" viewBox="0 0 35 32">
            <path fill="none" stroke="#3C3C43" stroke-opacity="0.6" stroke-width="2.4" stroke-miterlimit="4" stroke-linecap="round" stroke-linejoin="miter" d="M2.725 24.889h17.746"></path>
            <path fill="none" stroke="#3C3C43" stroke-opacity="0.6" stroke-width="2.4" stroke-miterlimit="4" stroke-linecap="round" stroke-linejoin="miter" d="M15.147 7.111h17.746"></path>
            <path fill="none" stroke="#3C3C43" stroke-opacity="0.6" stroke-width="2.4" stroke-miterlimit="4" stroke-linecap="butt" stroke-linejoin="miter" d="M33.467 24.889c0 3.267-2.643 5.911-5.898 5.911s-5.898-2.644-5.898-5.911c0-3.267 2.643-5.911 5.898-5.911s5.898 2.645 5.898 5.911z"></path>
            <path fill="none" stroke="#3C3C43" stroke-opacity="0.6" stroke-width="2.4" stroke-miterlimit="4" stroke-linecap="butt" stroke-linejoin="miter" d="M13.947 7.111c0 3.267-2.643 5.911-5.898 5.911s-5.898-2.644-5.898-5.911c0-3.267 2.643-5.911 5.898-5.911s5.898 2.644 5.898 5.911z"></path>
        </symbol>
        <symbol id="icon-magnifyingglass" viewBox="0 0 32 32">
            <path fill="#3C3C43" fillOpacity="0.6" style="fill: var(--color-searchbar-white)" d="M13.391 24.948c2.484 0 4.813-0.75 6.75-2.031l6.844 6.859c0.453 0.438 1.031 0.656 1.656 0.656 1.297 0 2.25-1.016 2.25-2.297 0-0.594-0.203-1.172-0.641-1.609l-6.797-6.828c1.406-2 2.234-4.422 2.234-7.047 0-6.766-5.531-12.297-12.297-12.297-6.75 0-12.297 5.531-12.297 12.297s5.531 12.297 12.297 12.297zM13.391 21.667c-4.953 0-9.016-4.063-9.016-9.016s4.063-9.016 9.016-9.016c4.953 0 9.016 4.063 9.016 9.016s-4.062 9.016-9.016 9.016z"></path>
        </symbol>
        <!-- Icon Sidebar -->
        <symbol id="icon-compass-black" viewBox="0 0 32 32">
            <path d="M29 16c0-7.18-5.82-13-13-13s-13 5.82-13 13v0c0 7.18 5.82 13 13 13s13-5.82 13-13v0zM0 16c0-8.837 7.163-16 16-16s16 7.163 16 16v0c0 8.837-7.163 16-16 16s-16-7.163-16-16v0zM19.169 20.319l-9.019 3.469c-1.213 0.469-2.406-0.725-1.938-1.938l3.469-9.019c0.206-0.531 0.619-0.944 1.15-1.15l9.019-3.469c1.212-0.469 2.406 0.725 1.938 1.938l-3.469 9.019c-0.2 0.531-0.619 0.944-1.15 1.15zM18 16c0-1.105-0.895-2-2-2s-2 0.895-2 2v0c0 1.105 0.895 2 2 2s2-0.895 2-2v0z"></path>
        </symbol>
        <symbol id="icon-compass-orange" viewBox="0 0 32 32">
            <path style="fill: var(--color-primary-orange)" d="M16 32c8.837 0 16-7.163 16-16s-7.163-16-16-16v0c-8.837 0-16 7.163-16 16s7.163 16 16 16v0zM19.169 20.319l-9.019 3.469c-1.213 0.469-2.406-0.725-1.938-1.938l3.469-9.019c0.206-0.531 0.619-0.944 1.15-1.15l9.019-3.469c1.212-0.469 2.406 0.725 1.938 1.938l-3.469 9.019c-0.2 0.531-0.619 0.944-1.15 1.15zM18 16c0-1.105-0.895-2-2-2s-2 0.895-2 2v0c0 1.105 0.895 2 2 2s2-0.895 2-2v0z"></path>
        </symbol>
        <symbol id="icon-heart-black" viewBox="0 0 32 32">
            <path d="M14.113 29.262l-0.156-0.144-10.95-10.169c-1.919-1.781-3.006-4.281-3.006-6.9v-0.206c0-4.4 3.125-8.175 7.45-9 2.463-0.475 4.981 0.094 6.987 1.506 0.563 0.4 1.088 0.862 1.563 1.394 0.262-0.3 0.544-0.575 0.844-0.831 0.231-0.2 0.469-0.388 0.719-0.563 0 0 0 0 0 0 2.006-1.413 4.525-1.981 6.988-1.513 4.325 0.825 7.45 4.606 7.45 9.006v0.206c0 2.619-1.087 5.119-3.006 6.9l-11.106 10.313c-0.512 0.475-1.188 0.744-1.887 0.744s-1.375-0.262-1.887-0.744zM14.944 9.063c-0.025-0.019-0.044-0.044-0.063-0.069l-1.119-1.256s0 0 0 0c-1.444-1.619-3.625-2.356-5.75-1.95-2.912 0.556-5.013 3.094-5.013 6.056v0.206c0 1.781 0.744 3.488 2.050 4.7l10.95 10.169 10.95-10.169c1.306-1.213 2.050-2.919 2.050-4.7v-0.206c0-2.956-2.1-5.5-5.006-6.056-2.125-0.406-4.313 0.338-5.75 1.95 0 0 0 0-0.006 0.006s0 0-0.006 0.006l-1.113 1.25c-0.019 0.025-0.044 0.044-0.063 0.069-0.281 0.281-0.663 0.438-1.056 0.438s-0.775-0.156-1.056-0.438z"></path>
        </symbol>
        <symbol id="icon-heart-orange" viewBox="0 0 32 34">
            <path style="fill: var(--color-primary-orange)" d="M2.975 18.775l11.294 10.544c0.469 0.438 1.088 0.681 1.731 0.681s1.263-0.244 1.731-0.681l11.294-10.544c1.9-1.769 2.975-4.25 2.975-6.844v-0.363c0-4.369-3.156-8.094-7.462-8.813-2.85-0.475-5.75 0.456-7.788 2.494l-0.75 0.75-0.75-0.75c-2.037-2.038-4.938-2.969-7.787-2.494-4.306 0.719-7.463 4.444-7.463 8.813v0.363c0 2.594 1.075 5.075 2.975 6.844z"></path>
        </symbol>
        <symbol id="icon-heart-orange-empty" viewBox="0 0 32 36">
            <path fill="none" stroke-width="3.5" style="stroke: var(--color-primary-orange)" d="M2.975 18.775l11.294 10.544c0.469 0.438 1.088 0.681 1.731 0.681s1.263-0.244 1.731-0.681l11.294-10.544c1.9-1.769 2.975-4.25 2.975-6.844v-0.363c0-4.369-3.156-8.094-7.462-8.813-2.85-0.475-5.75 0.456-7.788 2.494l-0.75 0.75-0.75-0.75c-2.037-2.038-4.938-2.969-7.787-2.494-4.306 0.719-7.463 4.444-7.463 8.813v0.363c0 2.594 1.075 5.075 2.975 6.844z"></path>
        </symbol>
        <symbol id="icon-homeIcon-black" viewBox="0 0 32 32">
            <path fill="none" stroke="#000" stroke-width="3" stroke-miterlimit="3" stroke-linecap="round" stroke-linejoin="round" d="M18.999 25.999v-6c0-0.552-0.448-1-1-1v0h-4c-0.552 0-1 0.448-1 1v0 6c0 0.552-0.448 1-1 1l-5.999 0.001c-0 0-0 0-0 0-0.552 0-1-0.448-1-1v0-11.558c0-0.293 0.126-0.556 0.326-0.739l0.001-0.001 9.999-9.092c0.177-0.161 0.413-0.26 0.673-0.26s0.496 0.099 0.673 0.261l-0.001-0.001 10.001 9.092c0.201 0.184 0.327 0.447 0.327 0.74v0 11.558c0 0.552-0.448 1-1 1-0 0-0 0-0 0l-6.001-0.001c-0.552-0-1-0.448-1-1 0 0 0 0 0 0v0z"></path>
        </symbol>
        <symbol id="icon-homeIcon-orange" viewBox="0 0 32 32">
            <path style="fill: var(--color-primary-orange)" d="M27.345 12.963l-10.001-9.092c-0.353-0.324-0.826-0.523-1.345-0.523s-0.992 0.199-1.347 0.524l0.001-0.001-9.999 9.092c-0.402 0.367-0.654 0.894-0.655 1.48v11.512c-0 0.007-0 0.015-0 0.023 0 0.516 0.19 0.988 0.504 1.349l-0.002-0.003c0.366 0.415 0.9 0.675 1.494 0.675 0.002 0 0.004 0 0.005 0h5.995c0.552 0 1-0.448 1-1v0-6.001c0-0.552 0.448-1 1-1v0h4c0.552 0 1 0.448 1 1v0 6.001c0 0.552 0.448 1 1 1v0h6.007c0.007 0 0.016 0 0.025 0 0.336 0 0.652-0.086 0.927-0.237l-0.010 0.005c0.633-0.347 1.055-1.008 1.055-1.768v-11.558c-0.001-0.586-0.252-1.112-0.653-1.478l-0.002-0.001z"></path>
        </symbol>
        <!-- Icon Player Music -->
        <symbol id="icon-previous-music" viewBox="0 0 32 32">
            <path d="M27.058 9.771v12.25c0 2.509-2.726 4.083-4.902 2.829l-5.312-3.059-5.312-3.072c-2.176-1.254-2.176-4.39 0-5.645l5.312-3.072 5.312-3.059c2.176-1.254 4.902 0.307 4.902 2.829z"></path>
            <path d="M5.964 24.76c-0.525 0-0.96-0.435-0.96-0.96v-15.821c0-0.525 0.435-0.96 0.96-0.96s0.96 0.435 0.96 0.96v15.821c0 0.525-0.435 0.96-0.96 0.96z"></path>
        </symbol>
        <symbol id="icon-playButton" viewBox="0 0 31 31">
            <path d="M15.451 0.683c-8.411 0-15.238 6.827-15.238 15.238s6.827 15.238 15.238 15.238 15.238-6.827 15.238-15.238c0-8.411-6.827-15.238-15.238-15.238zM19.504 18.557l-3.901 2.255c-2.514 1.448-4.571 0.259-4.571-2.636v-4.51c0-2.91 2.057-4.084 4.571-2.636l3.901 2.255c2.514 1.448 2.514 3.825 0 5.272z"></path>
        </symbol>
        <symbol id="icon-pauseButton" viewBox="0 0 32 32">
            <path d="M31.435 16.389c0-8.577-6.953-15.529-15.529-15.529s-15.529 6.953-15.529 15.529c0 8.577 6.953 15.529 15.529 15.529s15.529-6.953 15.529-15.529zM10.082 12.507c0-1.072 0.869-1.941 1.941-1.941s1.941 0.869 1.941 1.941v7.765c0 1.072-0.869 1.941-1.941 1.941s-1.941-0.869-1.941-1.941v-7.765zM19.787 10.566c1.072 0 1.941 0.869 1.941 1.941v7.765c0 1.072-0.869 1.941-1.941 1.941s-1.941-0.869-1.941-1.941v-7.765c0-1.072 0.869-1.941 1.941-1.941z"></path>
        </symbol>
        <symbol id="icon-playButton-opek" viewBox="0 0 31 31">
            <path d="M15.451 0.683c-8.411 0-15.238 6.827-15.238 15.238s6.827 15.238 15.238 15.238 15.238-6.827 15.238-15.238c0-8.411-6.827-15.238-15.238-15.238zM19.504 18.557l-3.901 2.255c-2.514 1.448-4.571 0.259-4.571-2.636v-4.51c0-2.91 2.057-4.084 4.571-2.636l3.901 2.255c2.514 1.448 2.514 3.825 0 5.272z"></path>
            <path style="fill: var(--color-primary-orange)" opacity="0.8" d="M19.504 18.557l-3.901 2.255c-2.514 1.448-4.571 0.259-4.571-2.636v-4.51c0-2.91 2.057-4.084 4.571-2.636l3.901 2.255c2.514 1.448 2.514 3.825 0 5.272z"></path>
        </symbol>
        <symbol id="icon-pauseButton-opek" viewBox="0 0 32 32">
            <path d="M31.435 16.389c0-8.577-6.953-15.529-15.529-15.529s-15.529 6.953-15.529 15.529c0 8.577 6.953 15.529 15.529 15.529s15.529-6.953 15.529-15.529zM10.082 12.507c0-1.072 0.869-1.941 1.941-1.941s1.941 0.869 1.941 1.941v7.765c0 1.072-0.869 1.941-1.941 1.941s-1.941-0.869-1.941-1.941v-7.765zM19.787 10.566c1.072 0 1.941 0.869 1.941 1.941v7.765c0 1.072-0.869 1.941-1.941 1.941s-1.941-0.869-1.941-1.941v-7.765c0-1.072 0.869-1.941 1.941-1.941z"></path>
            <path style="fill: var(--color-primary-orange)" opacity="0.8" d="M10.082 12.507c0-1.072 0.869-1.941 1.941-1.941s1.941 0.869 1.941 1.941v7.765c0 1.072-0.869 1.941-1.941 1.941s-1.941-0.869-1.941-1.941v-7.765zM19.787 10.566c1.072 0 1.941 0.869 1.941 1.941v7.765c0 1.072-0.869 1.941-1.941 1.941s-1.941-0.869-1.941-1.941v-7.765c0-1.072 0.869-1.941 1.941-1.941z"></path>
        </symbol>
        <symbol id="icon-next-music" viewBox="0 0 32 32">
            <path d="M5.964 9.771v12.25c0 2.509 2.726 4.083 4.902 2.829l5.312-3.059 5.312-3.072c2.176-1.254 2.176-4.39 0-5.645l-5.312-3.072-5.312-3.059c-2.176-1.254-4.902 0.307-4.902 2.829z"></path>
            <path d="M27.058 24.76c-0.525 0-0.96-0.435-0.96-0.96v-15.821c0-0.525 0.435-0.96 0.96-0.96s0.96 0.435 0.96 0.96v15.821c0 0.525-0.422 0.96-0.96 0.96z"></path>
        </symbol>
        <symbol id="icon-volume-high" viewBox="0 0 32 32">
            <path d="M22.485 25.985c-0.384 0-0.768-0.146-1.061-0.439-0.586-0.586-0.586-1.535 0-2.121 4.094-4.094 4.094-10.755 0-14.849-0.586-0.586-0.586-1.536 0-2.121s1.536-0.586 2.121 0c2.55 2.55 3.954 5.94 3.954 9.546s-1.404 6.996-3.954 9.546c-0.293 0.293-0.677 0.439-1.061 0.439v0zM17.157 23.157c-0.384 0-0.768-0.146-1.061-0.439-0.586-0.586-0.586-1.535 0-2.121 2.534-2.534 2.534-6.658 0-9.192-0.586-0.586-0.586-1.536 0-2.121s1.535-0.586 2.121 0c3.704 3.704 3.704 9.731 0 13.435-0.293 0.293-0.677 0.439-1.061 0.439z"></path>
            <path d="M13 30c-0.26 0-0.516-0.102-0.707-0.293l-7.707-7.707h-3.586c-0.552 0-1-0.448-1-1v-10c0-0.552 0.448-1 1-1h3.586l7.707-7.707c0.286-0.286 0.716-0.372 1.090-0.217s0.617 0.519 0.617 0.924v26c0 0.404-0.244 0.769-0.617 0.924-0.124 0.051-0.254 0.076-0.383 0.076z"></path>
        </symbol>
        <symbol id="icon-volume-low" viewBox="0 0 32 32">
            <path d="M17.157 23.157c-0.384 0-0.768-0.146-1.061-0.439-0.586-0.586-0.586-1.535 0-2.121 2.534-2.534 2.534-6.658 0-9.192-0.586-0.586-0.586-1.536 0-2.121s1.535-0.586 2.121 0c3.704 3.704 3.704 9.731 0 13.435-0.293 0.293-0.677 0.439-1.061 0.439z"></path>
            <path d="M13 30c-0.26 0-0.516-0.102-0.707-0.293l-7.707-7.707h-3.586c-0.552 0-1-0.448-1-1v-10c0-0.552 0.448-1 1-1h3.586l7.707-7.707c0.286-0.286 0.716-0.372 1.090-0.217s0.617 0.519 0.617 0.924v26c0 0.404-0.244 0.769-0.617 0.924-0.124 0.051-0.254 0.076-0.383 0.076z"></path>
        </symbol>
        <symbol id="icon-volume-muted" viewBox="0 0 32 32">
            <path d="M30 19.348v2.652h-2.652l-3.348-3.348-3.348 3.348h-2.652v-2.652l3.348-3.348-3.348-3.348v-2.652h2.652l3.348 3.348 3.348-3.348h2.652v2.652l-3.348 3.348 3.348 3.348z"></path>
            <path d="M13 30c-0.26 0-0.516-0.102-0.707-0.293l-7.707-7.707h-3.586c-0.552 0-1-0.448-1-1v-10c0-0.552 0.448-1 1-1h3.586l7.707-7.707c0.286-0.286 0.716-0.372 1.090-0.217s0.617 0.519 0.617 0.924v26c0 0.404-0.244 0.769-0.617 0.924-0.124 0.051-0.254 0.076-0.383 0.076z"></path>
        </symbol>
        <!-- Icon Settings -->
        <symbol id="icon-aboutus" viewBox="0 0 30 32">
            <path fill="#5a5d6c" style="fill: var(#5a5d6c)" d="M13.667 18.898c0 0.104 0.085 0.189 0.189 0.189h1.984c0.104 0 0.189-0.084 0.189-0.189 0.005-0.513 0.064-0.944 0.177-1.293 0.118-0.354 0.298-0.661 0.539-0.922 0.246-0.261 0.56-0.513 0.943-0.755 0.435-0.266 0.811-0.569 1.128-0.908s0.56-0.726 0.731-1.162c0.175-0.436 0.262-0.93 0.262-1.482 0-0.818-0.194-1.525-0.582-2.121-0.383-0.6-0.92-1.063-1.61-1.387-0.686-0.324-1.48-0.487-2.383-0.487-0.828 0-1.584 0.155-2.27 0.465-0.681 0.31-1.229 0.775-1.646 1.395-0.201 0.303-0.356 0.641-0.464 1.015-0.2 0.69 0.404 1.294 1.123 1.294h0.028c0.665 0 1.147-0.57 1.512-1.126 0.199-0.3 0.447-0.523 0.745-0.668 0.303-0.15 0.622-0.225 0.958-0.225 0.364 0 0.693 0.077 0.986 0.232 0.298 0.155 0.534 0.373 0.709 0.654s0.262 0.613 0.262 0.995c0 0.339-0.066 0.646-0.199 0.922-0.132 0.271-0.314 0.518-0.546 0.741-0.227 0.218-0.485 0.419-0.773 0.603-0.421 0.266-0.778 0.559-1.071 0.879-0.293 0.315-0.52 0.731-0.681 1.249-0.156 0.518-0.236 1.215-0.241 2.092z"></path>
            <path fill="#5a5d6c" style="fill: var(#5a5d6c)" d="M13.802 23.154c0.307 0.31 0.674 0.465 1.099 0.465 0.284 0 0.541-0.070 0.773-0.211 0.236-0.145 0.426-0.339 0.567-0.581 0.146-0.242 0.22-0.511 0.22-0.806 0-0.436-0.156-0.809-0.468-1.118-0.307-0.31-0.671-0.465-1.092-0.465-0.426 0-0.792 0.155-1.099 0.465s-0.461 0.683-0.461 1.118c0 0.445 0.154 0.823 0.461 1.133z"></path>
            <path fill="#5a5d6c" style="fill: var(#5a5d6c)" d="M30.476 16c0-8.416-6.822-15.238-15.238-15.238s-15.238 6.822-15.238 15.238c0 8.416 6.822 15.238 15.238 15.238s15.238-6.822 15.238-15.238zM28.19 16c0 7.153-5.799 12.952-12.952 12.952s-12.952-5.799-12.952-12.952c0-7.153 5.799-12.952 12.952-12.952s12.952 5.799 12.952 12.952z"></path>
        </symbol>
        <symbol id="icon-copylink" viewBox="0 0 32 32">
            <path fill="#5a5d6c" style="fill: var(#5a5d6c)" d="M26.371 5.629c-2.256-2.256-5.915-2.256-8.171 0l-2.514 2.514c-0.521 0.521-1.365 0.521-1.886 0s-0.521-1.365 0-1.886l2.514-2.514c3.298-3.298 8.644-3.298 11.942 0s3.298 8.644 0 11.942l-2.514 2.514c-0.521 0.521-1.365 0.521-1.886 0s-0.521-1.365 0-1.886l2.514-2.514c2.256-2.256 2.256-5.915 0-8.171z"></path>
            <path fill="#5a5d6c" style="fill: var(#5a5d6c)" d="M8.143 13.8c0.521 0.521 0.521 1.365 0 1.886l-2.514 2.514c-2.256 2.256-2.256 5.915 0 8.171s5.915 2.256 8.171 0l2.514-2.514c0.521-0.521 1.365-0.521 1.886 0s0.521 1.365 0 1.886l-2.514 2.514c-3.298 3.298-8.644 3.298-11.942 0s-3.298-8.644 0-11.942l2.514-2.514c0.521-0.521 1.365-0.521 1.886 0z"></path>
            <path fill="#5a5d6c" style="fill: var(#5a5d6c)" d="M11.286 18.828c-0.521 0.521-0.521 1.365 0 1.886s1.365 0.521 1.886 0l7.542-7.543c0.521-0.521 0.521-1.365 0-1.886s-1.365-0.521-1.886 0l-7.543 7.542z"></path>
        </symbol>
        <symbol id="icon-darkmode" viewBox="0 0 32 32">
            <path fill="#5a5d6c" style="fill: var(#5a5d6c)" d="M26.909 3.369c-0-0-0-0-0.001-0-2.401-1.596-5.283-2.526-8.382-2.526-8.371 0-15.158 6.786-15.158 15.158s6.786 15.158 15.158 15.158c3.099 0 5.981-0.93 8.382-2.526 0-0 0-0 0.001-0 0.013-0.009 0.026-0.017 0.039-0.026 0.317-0.213 0.626-0.437 0.926-0.672 0.77-0.604 0.052-1.828-0.926-1.828-0.174 0-0.346-0.004-0.518-0.013-0.087-0.005-0.174-0.010-0.261-0.017-0.007-0.001-0.014-0.001-0.021-0.002-5.207-0.407-9.306-4.762-9.306-10.074s4.099-9.667 9.306-10.074c0.007-0.001 0.014-0.001 0.021-0.002 0.087-0.007 0.173-0.012 0.261-0.017 0.171-0.009 0.344-0.013 0.518-0.013 0.978 0 1.696-1.225 0.926-1.828-0.3-0.235-0.609-0.459-0.926-0.672-0.013-0.009-0.026-0.017-0.039-0.026zM22.738 4.087c-4.907 1.734-8.422 6.413-8.422 11.913s3.515 10.179 8.422 11.913c-1.317 0.465-2.734 0.718-4.212 0.718-6.976 0-12.632-5.655-12.632-12.632s5.655-12.632 12.632-12.632c1.478 0 2.895 0.253 4.212 0.718z"></path>
        </symbol>
        <symbol id="icon-heartadd" viewBox="0 0 32 32">
            <path fill="#5a5d6c" style="fill: var(#5a5d6c)" d="M28.4 2.4c0-0.663-0.537-1.2-1.2-1.2s-1.2 0.537-1.2 1.2v2h-2c-0.663 0-1.2 0.537-1.2 1.2s0.537 1.2 1.2 1.2h2v2c0 0.663 0.537 1.2 1.2 1.2s1.2-0.537 1.2-1.2v-2h2c0.663 0 1.2-0.537 1.2-1.2s-0.537-1.2-1.2-1.2h-2v-2z"></path>
            <path fill="#5a5d6c" style="fill: var(#5a5d6c)" d="M17.188 5.32c1.041-0.734 2.68-1.679 4.571-2.004-0.592 0.581-0.959 1.39-0.959 2.284 0 0.154 0.011 0.306 0.032 0.454-0.859 0.328-1.64 0.789-2.26 1.227-1.527 1.078-3.616 1.078-5.143 0-1.136-0.801-2.814-1.681-4.511-1.681-0.117 0-0.232 0.001-0.346 0.003-4.069 0.060-7.1 4.355-5.929 9.315 0.601 2.543 2.783 5.243 5.622 7.719 2.762 2.408 5.792 4.303 7.512 5.3l-1.203 2.076c-3.568-2.068-12.705-7.93-14.267-14.544-1.41-5.972 2.169-12.177 8.23-12.266 0.125-0.002 0.252-0.003 0.381-0.003 2.44 0 4.618 1.219 5.895 2.12 0.698 0.492 1.678 0.492 2.376 0z"></path>
            <path fill="#5a5d6c" style="fill: var(#5a5d6c)" d="M17.427 30.013c-0.891 0.516-1.962 0.516-2.854 0l1.203-2.076c0.147 0.085 0.3 0.085 0.447 0l1.204 2.076z"></path>
            <path fill="#5a5d6c" style="fill: var(#5a5d6c)" d="M17.427 30.013l-1.204-2.076c1.72-0.997 4.75-2.892 7.512-5.3 2.839-2.476 5.022-5.176 5.622-7.719 0.319-1.352 0.326-2.654 0.085-3.835 0.591-0.581 0.957-1.389 0.957-2.282 0.274 0 0.541-0.034 0.795-0.099 0.836 2.035 1.053 4.419 0.499 6.768-1.562 6.613-10.699 12.476-14.267 14.544z"></path>
        </symbol>
        <symbol id="icon-account" viewBox="0 0 30 32">
            <path fill="#5a5d6c" style="fill: var(#5a5d6c)" d="M15.238 17.143c-3.682 0-6.667-2.985-6.667-6.667s2.985-6.667 6.667-6.667c3.682 0 6.667 2.985 6.667 6.667s-2.985 6.667-6.667 6.667zM15.238 14.857c2.42 0 4.381-1.961 4.381-4.381s-1.961-4.381-4.381-4.381c-2.42 0-4.381 1.961-4.381 4.381s1.961 4.381 4.381 4.381z"></path>
            <path fill="#5a5d6c" style="fill: var(#5a5d6c)" d="M7.059 28.859c-4.244-2.705-7.059-7.454-7.059-12.859 0-8.416 6.822-15.238 15.238-15.238s15.238 6.822 15.238 15.238c0 5.407-2.816 10.155-7.061 12.86-0.79 0.558-1.738 1.034-2.805 1.404-1.671 0.63-3.481 0.974-5.372 0.974s-3.7-0.344-5.37-0.973c-1.068-0.37-2.018-0.846-2.809-1.405zM10.661 28.12c1.3 0.444 2.861 0.718 4.577 0.718s3.279-0.274 4.579-0.718c0.824-0.311 1.608-0.704 2.341-1.169 1.129-0.814 1.46-1.614 1.46-2.151 0-0.614-0.434-1.575-2.004-2.505-1.52-0.901-3.77-1.533-6.377-1.533s-4.856 0.631-6.377 1.533c-1.57 0.931-2.004 1.891-2.004 2.505 0 0.536 0.331 1.336 1.459 2.15 0.735 0.465 1.519 0.859 2.344 1.171zM4.759 23.614c0.936-2.926 5.272-5.138 10.479-5.138s9.543 2.212 10.479 5.138c1.555-2.137 2.473-4.768 2.473-7.614 0-7.153-5.799-12.952-12.952-12.952s-12.952 5.799-12.952 12.952c0 2.846 0.918 5.477 2.473 7.614z"></path>
        </symbol>
        <symbol id="icon-legal" viewBox="0 0 32 32">
            <path fill="#5a5d6c" style="fill: var(#5a5d6c)" d="M2.849 15.712c-0.469-0.469-1.228-0.469-1.697 0s-0.469 1.228 0 1.697l5.6 5.6c0.469 0.469 1.228 0.469 1.697 0s0.469-1.228 0-1.697l-5.6-5.6z"></path>
            <path fill="#5a5d6c" style="fill: var(#5a5d6c)" d="M24.849 7.409c0.458-0.458 0.47-1.196 0.027-1.669l-0.003-0.003-0.006-0.006-0.020-0.021c-0.017-0.018-0.042-0.043-0.073-0.075-0.062-0.064-0.151-0.155-0.262-0.265-0.222-0.22-0.536-0.521-0.905-0.846-0.711-0.626-1.73-1.434-2.733-1.865-0.753-0.324-1.632-0.42-2.437-0.426-0.824-0.007-1.674 0.081-2.425 0.194-0.755 0.114-1.436 0.258-1.927 0.373-0.246 0.058-0.446 0.108-0.587 0.145-0.070 0.018-0.125 0.033-0.164 0.044l-0.064 0.018c-0.196 0.056-0.375 0.161-0.519 0.305l-8.8 8.8c-0.469 0.469-0.469 1.228 0 1.697l6.4 6.4c0.469 0.469 1.228 0.469 1.697 0l1.952-1.952 10.351 10.352c1.573 1.573 4.124 1.573 5.697 0s1.573-4.124 0-5.697l-10.352-10.351 5.152-5.151zM6.497 12.96l7.724-7.724c0.111-0.028 0.25-0.063 0.412-0.101 0.447-0.105 1.062-0.235 1.737-0.336 0.679-0.102 1.394-0.173 2.048-0.167 0.673 0.005 1.183 0.091 1.509 0.231 0.633 0.272 1.415 0.863 2.095 1.462 0.095 0.084 0.186 0.166 0.273 0.245l-11.094 11.093-4.703-4.703zM15.697 16.56l2.303-2.303 10.352 10.351c0.636 0.636 0.636 1.667 0 2.303s-1.667 0.636-2.303 0l-10.351-10.351z"></path>
        </symbol>
        <symbol id="icon-logout" viewBox="0 0 30 32">
            <path fill="#5a5d6c" style="fill: var(#5a5d6c)" d="M7.619 1.143c-3.998 0-7.238 3.241-7.238 7.238v15.238c0 3.998 3.241 7.238 7.238 7.238h3.048c3.156 0 5.714-2.558 5.714-5.714 0-0.631-0.512-1.143-1.143-1.143s-1.143 0.512-1.143 1.143c0 1.893-1.535 3.429-3.429 3.429h-3.048c-2.735 0-4.952-2.217-4.952-4.952v-15.238c0-2.735 2.217-4.952 4.952-4.952h3.048c1.894 0 3.429 1.535 3.429 3.429 0 0.631 0.512 1.143 1.143 1.143s1.143-0.512 1.143-1.143c0-3.156-2.558-5.714-5.714-5.714h-3.048z"></path>
            <path fill="#5a5d6c" style="fill: var(#5a5d6c)" d="M17.57 12.144c0.446 0.446 0.446 1.17 0 1.616l-1.097 1.097h12.479c0.631 0 1.143 0.512 1.143 1.143s-0.512 1.143-1.143 1.143h-12.479l1.097 1.097c0.446 0.446 0.446 1.17 0 1.616s-1.17 0.446-1.616 0l-3.048-3.048c-0.11-0.11-0.192-0.236-0.248-0.371-0.055-0.132-0.085-0.276-0.087-0.427l-0-0.011 0-0.011c0.003-0.289 0.114-0.577 0.335-0.798l3.048-3.048c0.446-0.446 1.17-0.446 1.616 0z"></path>
        </symbol>
        <symbol id="icon-minus" viewBox="0 0 32 32">
            <path fill="#5a5d6c" style="fill: var(#5a5d6c)" d="M2 14.5c-0.828 0-1.5 0.672-1.5 1.5s0.672 1.5 1.5 1.5h28c0.828 0 1.5-0.672 1.5-1.5s-0.672-1.5-1.5-1.5h-28z"></path>
        </symbol>
        <symbol id="icon-artistPanel" viewBox="0 0 32 32">
            <path fill="#5a5d6c" style="fill: var(#5a5d6c)" d="M5.333 0.762h21.333c2.946 0 5.333 2.388 5.333 5.333s-2.388 5.333-5.333 5.333h-21.333c-2.946 0-5.333-2.388-5.333-5.333s2.388-5.333 5.333-5.333zM26.667 3.048h-21.333c-1.683 0-3.048 1.364-3.048 3.048s1.364 3.048 3.048 3.048h21.333c1.683 0 3.048-1.364 3.048-3.048s-1.364-3.048-3.048-3.048z"></path>
            <path fill="#5a5d6c" style="fill: var(#5a5d6c)" d="M1.524 25.143v-6.095c0-3.366 2.729-6.095 6.095-6.095s6.095 2.729 6.095 6.095v6.095c0 3.366-2.729 6.095-6.095 6.095s-6.095-2.729-6.095-6.095zM3.81 19.048v6.095c0 2.104 1.706 3.81 3.81 3.81s3.81-1.706 3.81-3.81v-6.095c0-2.104-1.706-3.81-3.81-3.81s-3.81 1.706-3.81 3.81z"></path>
            <path fill="#5a5d6c" style="fill: var(#5a5d6c)" d="M25.905 12.952h-4.571c-3.366 0-6.095 2.729-6.095 6.095v6.095c0 3.366 2.729 6.095 6.095 6.095h4.571c3.366 0 6.095-2.729 6.095-6.095v-6.095c0-3.366-2.729-6.095-6.095-6.095zM21.333 15.238h4.571c2.104 0 3.81 1.706 3.81 3.81v6.095c0 2.104-1.706 3.81-3.81 3.81h-4.571c-2.104 0-3.81-1.706-3.81-3.81v-6.095c0-2.104 1.706-3.81 3.81-3.81z"></path>
        </symbol>
        <symbol id="icon-playlistadd" viewBox="0 0 32 32">
            <path fill="#5a5d6c" style="fill: var(#5a5d6c)" d="M0.381 3.81c0-0.631 0.512-1.143 1.143-1.143h25.905c0.631 0 1.143 0.512 1.143 1.143s-0.512 1.143-1.143 1.143h-25.905c-0.631 0-1.143-0.512-1.143-1.143z"></path>
            <path fill="#5a5d6c" style="fill: var(#5a5d6c)" d="M24.381 14.857c0.631 0 1.143 0.512 1.143 1.143v4.952h4.952c0.631 0 1.143 0.512 1.143 1.143s-0.512 1.143-1.143 1.143h-4.952v4.952c0 0.631-0.512 1.143-1.143 1.143s-1.143-0.512-1.143-1.143v-4.952h-4.952c-0.631 0-1.143-0.512-1.143-1.143s0.512-1.143 1.143-1.143h4.952v-4.952c0-0.631 0.512-1.143 1.143-1.143z"></path>
            <path fill="#5a5d6c" style="fill: var(#5a5d6c)" d="M1.524 9.524c-0.631 0-1.143 0.512-1.143 1.143s0.512 1.143 1.143 1.143h25.905c0.631 0 1.143-0.512 1.143-1.143s-0.512-1.143-1.143-1.143h-25.905z"></path>
            <path fill="#5a5d6c" style="fill: var(#5a5d6c)" d="M0.381 18.286c0-0.631 0.512-1.143 1.143-1.143h13.714c0.631 0 1.143 0.512 1.143 1.143s-0.512 1.143-1.143 1.143h-13.714c-0.631 0-1.143-0.512-1.143-1.143z"></path>
            <path fill="#5a5d6c" style="fill: var(#5a5d6c)" d="M1.524 24.762c-0.631 0-1.143 0.512-1.143 1.143s0.512 1.143 1.143 1.143h13.714c0.631 0 1.143-0.512 1.143-1.143s-0.512-1.143-1.143-1.143h-13.714z"></path>
        </symbol>
        <symbol id="icon-plus" viewBox="0 0 32 32">
            <path fill="#5a5d6c" style="fill: var(#5a5d6c)" d="M17.412 2.824c0-0.78-0.632-1.412-1.412-1.412s-1.412 0.632-1.412 1.412v11.765h-11.765c-0.78 0-1.412 0.632-1.412 1.412s0.632 1.412 1.412 1.412h11.765v11.765c0 0.78 0.632 1.412 1.412 1.412s1.412-0.632 1.412-1.412v-11.765h11.765c0.78 0 1.412-0.632 1.412-1.412s-0.632-1.412-1.412-1.412h-11.765v-11.765z"></path>
        </symbol>
        <symbol id="icon-trash" viewBox="0 0 27 32">
            <path fill="#5a5d6c" style="fill: var(#5a5d6c)" d="M5.946 6.029l0.043-0.006c0.992-0.131 1.837-0.786 2.212-1.714 0.773-1.914 2.631-3.167 4.695-3.167h2.053c2.092 0 3.975 1.27 4.758 3.209l0.138 0.341c0.286 0.708 0.921 1.217 1.675 1.341 0.087 0.014 0.171 0.038 0.25 0.071 1.198 0.094 2.25 0.187 3.007 0.257 0.387 0.036 0.698 0.066 0.912 0.087l0.333 0.033c0.628 0.064 1.084 0.626 1.020 1.254s-0.627 1.085-1.255 1.020l-0.322-0.032c-0.21-0.021-0.517-0.050-0.9-0.086-0.766-0.071-1.837-0.166-3.056-0.26-2.446-0.19-5.457-0.378-7.795-0.378s-5.35 0.187-7.795 0.378c-1.219 0.095-2.29 0.189-3.055 0.26-0.383 0.036-0.689 0.065-0.9 0.086l-0.323 0.032c0 0 0 0-0.001-0.011l0.001 0.011c-0.628 0.064-1.189-0.392-1.254-1.020s0.392-1.189 1.020-1.254l0.333-0.033c0.214-0.021 0.525-0.051 0.912-0.087 0.757-0.070 1.809-0.163 3.007-0.257 0.090-0.037 0.186-0.063 0.286-0.076zM12.896 3.429c-1.132 0-2.152 0.687-2.576 1.737-0.092 0.228-0.2 0.447-0.322 0.656 1.294-0.065 2.577-0.107 3.716-0.107 1.264 0 2.705 0.052 4.142 0.129-0.047-0.096-0.091-0.194-0.131-0.294l-0.138-0.341c-0.435-1.076-1.479-1.78-2.639-1.78h-2.053z"></path>
            <path fill="#5a5d6c" style="fill: var(#5a5d6c)" d="M23.996 11.528c0.055-0.629-0.411-1.183-1.040-1.238s-1.183 0.411-1.238 1.040l-1.227 14.11c-0.154 1.772-1.637 3.132-3.416 3.132h-7.332c-1.836 0-3.346-1.446-3.425-3.28l-0.605-13.913c-0.027-0.631-0.561-1.12-1.191-1.092s-1.12 0.561-1.092 1.191l0.605 13.913c0.133 3.056 2.65 5.466 5.709 5.466h7.332c2.964 0 5.436-2.266 5.693-5.219l1.227-14.11z"></path>
            <path fill="#5a5d6c" style="fill: var(#5a5d6c)" d="M9.143 24c-0.631 0-1.143 0.512-1.143 1.143s0.512 1.143 1.143 1.143h9.143c0.631 0 1.143-0.512 1.143-1.143s-0.512-1.143-1.143-1.143h-9.143z"></path>
        </symbol>
        <symbol id="icon-trash-red" viewBox="0 0 27 32">
            <path fill="#FF0000" style="fill: var(#FF0000)" d="M5.946 6.029l0.043-0.006c0.992-0.131 1.837-0.786 2.212-1.714 0.773-1.914 2.631-3.167 4.695-3.167h2.053c2.092 0 3.975 1.27 4.758 3.209l0.138 0.341c0.286 0.708 0.921 1.217 1.675 1.341 0.087 0.014 0.171 0.038 0.25 0.071 1.198 0.094 2.25 0.187 3.007 0.257 0.387 0.036 0.698 0.066 0.912 0.087l0.333 0.033c0.628 0.064 1.084 0.626 1.020 1.254s-0.627 1.085-1.255 1.020l-0.322-0.032c-0.21-0.021-0.517-0.050-0.9-0.086-0.766-0.071-1.837-0.166-3.056-0.26-2.446-0.19-5.457-0.378-7.795-0.378s-5.35 0.187-7.795 0.378c-1.219 0.095-2.29 0.189-3.055 0.26-0.383 0.036-0.689 0.065-0.9 0.086l-0.323 0.032c0 0 0 0-0.001-0.011l0.001 0.011c-0.628 0.064-1.189-0.392-1.254-1.020s0.392-1.189 1.020-1.254l0.333-0.033c0.214-0.021 0.525-0.051 0.912-0.087 0.757-0.070 1.809-0.163 3.007-0.257 0.090-0.037 0.186-0.063 0.286-0.076zM12.896 3.429c-1.132 0-2.152 0.687-2.576 1.737-0.092 0.228-0.2 0.447-0.322 0.656 1.294-0.065 2.577-0.107 3.716-0.107 1.264 0 2.705 0.052 4.142 0.129-0.047-0.096-0.091-0.194-0.131-0.294l-0.138-0.341c-0.435-1.076-1.479-1.78-2.639-1.78h-2.053z"></path>
            <path fill="#FF0000" style="fill: var(#FF0000)" d="M23.996 11.528c0.055-0.629-0.411-1.183-1.040-1.238s-1.183 0.411-1.238 1.040l-1.227 14.11c-0.154 1.772-1.637 3.132-3.416 3.132h-7.332c-1.836 0-3.346-1.446-3.425-3.28l-0.605-13.913c-0.027-0.631-0.561-1.12-1.191-1.092s-1.12 0.561-1.092 1.191l0.605 13.913c0.133 3.056 2.65 5.466 5.709 5.466h7.332c2.964 0 5.436-2.266 5.693-5.219l1.227-14.11z"></path>
            <path fill="#FF0000" style="fill: var(#FF0000)" d="M9.143 24c-0.631 0-1.143 0.512-1.143 1.143s0.512 1.143 1.143 1.143h9.143c0.631 0 1.143-0.512 1.143-1.143s-0.512-1.143-1.143-1.143h-9.143z"></path>
        </symbol>
        <symbol id="icon-lock" viewBox="0 0 20 20">
            <path d="M4 8v-2c0-3.314 2.686-6 6-6s6 2.686 6 6v0 2h1c1.105 0 2 0.895 2 2v0 8c0 1.105-0.895 2-2 2v0h-14c-1.105 0-2-0.895-2-2v0-8c0-1.1 0.9-2 2-2h1zM9 14.73v2.27h2v-2.27c0.602-0.352 1-0.996 1-1.732 0-1.105-0.895-2-2-2s-2 0.895-2 2c0 0.736 0.398 1.38 0.991 1.727l0.009 0.005zM7 6v2h6v-2c0-1.657-1.343-3-3-3s-3 1.343-3 3v0z"></path>
        </symbol>
        <symbol id="icon-eye" viewBox="0 0 32 32">
            <path d="M16 6c-6.979 0-13.028 4.064-16 10 2.972 5.936 9.021 10 16 10s13.027-4.064 16-10c-2.972-5.936-9.021-10-16-10zM23.889 11.303c1.88 1.199 3.473 2.805 4.67 4.697-1.197 1.891-2.79 3.498-4.67 4.697-2.362 1.507-5.090 2.303-7.889 2.303s-5.527-0.796-7.889-2.303c-1.88-1.199-3.473-2.805-4.67-4.697 1.197-1.891 2.79-3.498 4.67-4.697 0.122-0.078 0.246-0.154 0.371-0.228-0.311 0.854-0.482 1.776-0.482 2.737 0 4.418 3.582 8 8 8s8-3.582 8-8c0-0.962-0.17-1.883-0.482-2.737 0.124 0.074 0.248 0.15 0.371 0.228v0zM16 13c0 1.657-1.343 3-3 3s-3-1.343-3-3 1.343-3 3-3 3 1.343 3 3z"></path>
        </symbol>
        <symbol id="icon-eye-blocked" viewBox="0 0 32 32">
            <path d="M29.561 0.439c-0.586-0.586-1.535-0.586-2.121 0l-6.318 6.318c-1.623-0.492-3.342-0.757-5.122-0.757-6.979 0-13.028 4.064-16 10 1.285 2.566 3.145 4.782 5.407 6.472l-4.968 4.968c-0.586 0.586-0.586 1.535 0 2.121 0.293 0.293 0.677 0.439 1.061 0.439s0.768-0.146 1.061-0.439l27-27c0.586-0.586 0.586-1.536 0-2.121zM13 10c1.32 0 2.44 0.853 2.841 2.037l-3.804 3.804c-1.184-0.401-2.037-1.521-2.037-2.841 0-1.657 1.343-3 3-3zM3.441 16c1.197-1.891 2.79-3.498 4.67-4.697 0.122-0.078 0.246-0.154 0.371-0.228-0.311 0.854-0.482 1.776-0.482 2.737 0 1.715 0.54 3.304 1.459 4.607l-1.904 1.904c-1.639-1.151-3.038-2.621-4.114-4.323z"></path>
            <path d="M24 13.813c0-0.849-0.133-1.667-0.378-2.434l-10.056 10.056c0.768 0.245 1.586 0.378 2.435 0.378 4.418 0 8-3.582 8-8z"></path>
            <path d="M25.938 9.062l-2.168 2.168c0.040 0.025 0.079 0.049 0.118 0.074 1.88 1.199 3.473 2.805 4.67 4.697-1.197 1.891-2.79 3.498-4.67 4.697-2.362 1.507-5.090 2.303-7.889 2.303-1.208 0-2.403-0.149-3.561-0.439l-2.403 2.403c1.866 0.671 3.873 1.036 5.964 1.036 6.978 0 13.027-4.064 16-10-1.407-2.81-3.504-5.2-6.062-6.938z"></path>
        </symbol>
        <symbol id="icon-cloud-upload" viewBox="0 0 25 24">
            <path d="M7.52699 19H10.3809V17.8545C9.86901 17.8545 9.35717 17.6592 8.96665 17.2687C8.1856 16.4877 8.1856 15.2213 8.96665 14.4403L10.9666 12.4403C11.7477 11.6592 13.014 11.6592 13.7951 12.4403L15.7951 14.4403C16.5761 15.2213 16.5761 16.4877 15.7951 17.2687C15.4045 17.6592 14.8927 17.8545 14.3809 17.8545V19H16.6732C23.1294 18.4674 22.5914 10.4786 17.2112 10.4786C16.1352 1.42451 3.76089 4.62006 5.91294 12.6089C1.60876 14.2067 3.22277 19 7.52699 19Z" />
            <path d="M12.9112 13.3242C12.6183 13.0313 12.1434 13.0313 11.8505 13.3242L9.85053 15.3242C9.55764 15.6171 9.55764 16.0919 9.85053 16.3848C10.1434 16.6777 10.6183 16.6777 10.9112 16.3848L11.6309 15.6652V19.8545C11.6309 20.2687 11.9666 20.6045 12.3809 20.6045C12.7951 20.6045 13.1309 20.2687 13.1309 19.8545V15.6652L13.8505 16.3848C14.1434 16.6777 14.6183 16.6777 14.9112 16.3848C15.2041 16.0919 15.2041 15.6171 14.9112 15.3242L12.9112 13.3242Z" />
        </symbol>
    </defs>
</svg>