<svg width="21" height="19" viewBox="0 0 21 19" fill="none" xmlns="http://www.w3.org/2000/svg">
<path d="M15.3451 13.0625C15.2113 13.0625 15.0859 13.025 14.9689 12.95C14.693 12.7625 14.6345 12.41 14.8435 12.1625C16.1559 10.595 16.1559 8.40502 14.8435 6.83752C14.6345 6.59002 14.693 6.23752 14.9689 6.05002C15.2448 5.86252 15.6376 5.91502 15.8466 6.16252C17.485 8.12752 17.485 10.8725 15.8466 12.8375C15.7212 12.9875 15.5373 13.0625 15.3451 13.0625Z" fill="#FF7E3A"/>
<path d="M16.8748 14.9375C16.7411 14.9375 16.6157 14.9 16.4987 14.825C16.2228 14.6375 16.1643 14.285 16.3733 14.0375C18.6052 11.3675 18.6052 7.63252 16.3733 4.96252C16.1643 4.71502 16.2228 4.36252 16.4987 4.17502C16.7745 3.98752 17.1674 4.04002 17.3764 4.28752C19.9427 7.35502 19.9427 11.645 17.3764 14.7125C17.2594 14.8625 17.0671 14.9375 16.8748 14.9375Z" fill="#FF7E3A"/>
<path d="M12.0182 3.33498C11.0819 2.86998 9.88658 2.98998 8.66614 3.67248L6.22526 5.04498C6.05808 5.13498 5.86582 5.18748 5.67356 5.18748H4.89615H4.4782C2.45528 5.18748 1.34351 6.18498 1.34351 7.99998V11C1.34351 12.815 2.45528 13.8125 4.4782 13.8125H4.89615H5.67356C5.86582 13.8125 6.05808 13.865 6.22526 13.955L8.66614 15.3275C9.40175 15.74 10.1206 15.9425 10.7894 15.9425C11.224 15.9425 11.642 15.8525 12.0182 15.665C12.946 15.2 13.4643 14.2325 13.4643 12.9425V6.05748C13.4643 4.76748 12.946 3.79998 12.0182 3.33498Z" fill="#FF7E3A"/>
</svg>
