<svg width="20" height="21" viewBox="0 0 20 21" fill="none" xmlns="http://www.w3.org/2000/svg">
<path d="M8.96897 12.4018C8.96897 12.4703 9.02445 12.5257 9.0929 12.5257H10.3951C10.4635 12.5257 10.519 12.4703 10.519 12.4018C10.5221 12.065 10.5609 11.7822 10.6354 11.5534C10.713 11.3214 10.8309 11.1196 10.9891 10.948C11.1505 10.7765 11.3569 10.6112 11.6082 10.4523C11.8937 10.2776 12.1404 10.079 12.3483 9.85653C12.5562 9.6341 12.7161 9.37989 12.8278 9.0939C12.9426 8.80791 13 8.48379 13 8.12154C13 7.58453 12.8728 7.12059 12.6183 6.72974C12.367 6.33572 12.0147 6.03225 11.5617 5.81935C11.1117 5.60645 10.5904 5.5 9.99767 5.5C9.45462 5.5 8.95811 5.60168 8.50815 5.80505C8.06129 6.00842 7.70132 6.31347 7.42824 6.72021C7.29641 6.91883 7.19491 7.14093 7.12375 7.38652C6.99248 7.83961 7.38896 8.23594 7.86069 8.23594H7.87882C8.31503 8.23594 8.63186 7.86181 8.87122 7.49714C9.00155 7.30013 9.16447 7.15396 9.35997 7.05863C9.55857 6.96012 9.76804 6.91087 9.98836 6.91087C10.2273 6.91087 10.443 6.96171 10.6354 7.06339C10.8309 7.16508 10.986 7.30807 11.1009 7.49237C11.2157 7.67668 11.2731 7.89434 11.2731 8.14538C11.2731 8.36781 11.2296 8.56959 11.1427 8.75072C11.0559 8.92866 10.9364 9.09072 10.7843 9.23689C10.6354 9.37989 10.4663 9.51176 10.277 9.63251C10.0008 9.80728 9.76649 9.99952 9.57409 10.2092C9.38169 10.4158 9.23274 10.6891 9.12723 11.0291C9.02483 11.3691 8.97207 11.8267 8.96897 12.4018Z" fill="#5A5D6C"/>
<path d="M9.05741 15.1949C9.25912 15.3983 9.49961 15.5 9.7789 15.5C9.96509 15.5 10.1342 15.4539 10.2863 15.3618C10.4414 15.2664 10.5656 15.1393 10.6587 14.9805C10.7548 14.8216 10.8029 14.6452 10.8029 14.4514C10.8029 14.1654 10.7005 13.9207 10.4957 13.7174C10.294 13.514 10.0551 13.4123 9.7789 13.4123C9.49961 13.4123 9.25912 13.514 9.05741 13.7174C8.8557 13.9207 8.75485 14.1654 8.75485 14.4514C8.75485 14.7437 8.8557 14.9916 9.05741 15.1949Z" fill="#5A5D6C"/>
<path fill-rule="evenodd" clip-rule="evenodd" d="M20 10.5C20 16.0228 15.5228 20.5 10 20.5C4.47715 20.5 0 16.0228 0 10.5C0 4.97715 4.47715 0.5 10 0.5C15.5228 0.5 20 4.97715 20 10.5ZM18.5 10.5C18.5 15.1944 14.6944 19 10 19C5.30558 19 1.5 15.1944 1.5 10.5C1.5 5.80558 5.30558 2 10 2C14.6944 2 18.5 5.80558 18.5 10.5Z" fill="#5A5D6C"/>
</svg>
