<svg width="15" height="19" viewBox="0 0 15 19" fill="none" xmlns="http://www.w3.org/2000/svg">
<path fill-rule="evenodd" clip-rule="evenodd" d="M13.9771 2.0003C13.977 2.00021 13.9769 2.00012 13.9767 2.00004C12.5513 1.05224 10.8401 0.5 9 0.5C4.02944 0.5 0 4.52944 0 9.5C0 14.4706 4.02944 18.5 9 18.5C10.8401 18.5 12.5513 17.9478 13.9767 17C13.9769 16.9999 13.977 16.9998 13.9771 16.9997C13.9848 16.9946 13.9924 16.9895 14 16.9845C14.1885 16.8583 14.3719 16.7252 14.55 16.5855C15.0069 16.2271 14.5807 15.5 14 15.5C13.8969 15.5 13.7943 15.4974 13.6925 15.4923C13.6407 15.4896 13.5891 15.4864 13.5377 15.4825C13.5336 15.4821 13.5295 15.4818 13.5254 15.4815C10.4335 15.2396 8 12.654 8 9.5C8 6.34603 10.4335 3.76045 13.5254 3.5185C13.5295 3.51818 13.5336 3.51786 13.5377 3.51755C13.5891 3.51363 13.6407 3.51036 13.6925 3.50774C13.7943 3.5026 13.8969 3.5 14 3.5C14.5807 3.5 15.0069 2.77287 14.55 2.41449C14.3719 2.27482 14.1885 2.14172 14 2.01555C13.9924 2.01045 13.9848 2.00537 13.9771 2.0003ZM11.5006 2.42655C8.58731 3.45597 6.5 6.23422 6.5 9.5C6.5 12.7658 8.58731 15.544 11.5006 16.5735C10.7189 16.8498 9.87754 17 9 17C4.85786 17 1.5 13.6421 1.5 9.5C1.5 5.35786 4.85786 2 9 2C9.87754 2 10.7189 2.15025 11.5006 2.42655Z" fill="#5A5D6C"/>
</svg>
