<svg width="20" height="21" viewBox="0 0 20 21" fill="none" xmlns="http://www.w3.org/2000/svg">
<path fill-rule="evenodd" clip-rule="evenodd" d="M9.9999 11.2499C12.4161 11.2499 14.3749 9.2912 14.3749 6.87497C14.3749 4.45874 12.4161 2.5 9.9999 2.5C7.58367 2.5 5.62493 4.45874 5.62493 6.87497C5.62493 9.2912 7.58367 11.2499 9.9999 11.2499ZM9.9999 9.74994C11.5877 9.74994 12.8749 8.46277 12.8749 6.87497C12.8749 5.28717 11.5877 4 9.9999 4C8.4121 4 7.12493 5.28717 7.12493 6.87497C7.12493 8.46277 8.4121 9.74994 9.9999 9.74994Z" fill="#5A5D6C"/>
<path fill-rule="evenodd" clip-rule="evenodd" d="M4.63261 18.939C1.84737 17.1638 0 14.0476 0 10.5C0 4.97715 4.47715 0.5 10 0.5C15.5228 0.5 20 4.97715 20 10.5C20 14.0481 18.1522 17.1645 15.3664 18.9396C14.8483 19.3059 14.2255 19.6184 13.5253 19.8609C12.4289 20.274 11.2409 20.5 10 20.5C8.75956 20.5 7.57186 20.2741 6.4758 19.8613C5.77469 19.6186 5.15115 19.3058 4.63261 18.939ZM6.99596 18.4539C7.84921 18.7453 8.87368 18.9248 9.99995 18.9248C11.1267 18.9248 12.1515 18.7452 13.005 18.4536C13.5456 18.2492 14.06 17.9913 14.5416 17.6863C15.2828 17.152 15.4999 16.6269 15.4999 16.2748C15.4999 15.8717 15.2151 15.2415 14.1847 14.6306C13.187 14.0391 11.7109 13.6248 9.99995 13.6248C8.28896 13.6248 6.81291 14.0391 5.8152 14.6306C4.78476 15.2415 4.5 15.8717 4.5 16.2748C4.5 16.6268 4.71699 17.1517 5.45757 17.6857C5.93969 17.9911 6.45465 18.2494 6.99596 18.4539ZM3.12289 15.4966C3.73734 13.5766 6.58268 12.1248 9.99995 12.1248C13.4173 12.1248 16.2627 13.5766 16.877 15.4967C17.8978 14.0941 18.5 12.3674 18.5 10.5C18.5 5.80558 14.6944 2 10 2C5.30558 2 1.5 5.80558 1.5 10.5C1.5 12.3674 2.10216 14.0941 3.12289 15.4966Z" fill="#5A5D6C"/>
</svg>
