<svg width="20" height="19" viewBox="0 0 20 19" fill="none" xmlns="http://www.w3.org/2000/svg">
<path d="M1.78033 9.31977C1.48744 9.02687 1.01256 9.02687 0.71967 9.31977C0.426777 9.61266 0.426777 10.0875 0.71967 10.3804L4.21967 13.8804C4.51256 14.1733 4.98744 14.1733 5.28033 13.8804C5.57322 13.5875 5.57322 13.1127 5.28033 12.8198L1.78033 9.31977Z" fill="#5A5D6C"/>
<path fill-rule="evenodd" clip-rule="evenodd" d="M15.5304 4.13051C15.8165 3.84439 15.8239 3.38272 15.5473 3.08736L15.5456 3.08549L15.5419 3.08157L15.5293 3.06826C15.5186 3.05701 15.5033 3.04111 15.4839 3.02108C15.4451 2.98106 15.3895 2.92443 15.32 2.85555C15.1812 2.71815 14.9849 2.53015 14.7541 2.32699C14.3099 1.93601 13.673 1.43049 13.0462 1.16111C12.5757 0.958923 12.0261 0.898837 11.5232 0.894756C11.0084 0.890577 10.4772 0.945278 10.0075 1.01615C9.53535 1.08738 9.11004 1.17734 8.80334 1.24922C8.64953 1.28527 8.52438 1.31704 8.43672 1.34008C8.39286 1.35161 8.35831 1.36096 8.33417 1.3676L8.30587 1.37545L8.29781 1.37772L8.29535 1.37842L8.29395 1.37882C8.17141 1.41384 8.05983 1.47951 7.96971 1.56962L2.46967 7.06972C2.17678 7.36262 2.17678 7.83749 2.46967 8.13038L6.46967 12.1304C6.76256 12.4233 7.23743 12.4233 7.53032 12.1304L8.75004 10.9107L15.2197 17.3804C16.203 18.3636 17.7971 18.3636 18.7804 17.3804C19.7636 16.3971 19.7636 14.803 18.7804 13.8197L12.3107 7.35006L15.5304 4.13051ZM4.06066 7.60005L8.88798 2.77268C8.95723 2.75497 9.04421 2.73341 9.14561 2.70964C9.42509 2.64415 9.80945 2.563 10.2313 2.49936C10.6555 2.43535 11.1025 2.39139 11.511 2.39471C11.9314 2.39812 12.2502 2.45168 12.4539 2.53924C12.8498 2.70936 13.338 3.07884 13.7631 3.45298C13.8225 3.50534 13.8795 3.55664 13.9335 3.60608L7.00001 10.5394L4.06066 7.60005ZM9.81071 9.85005L11.25 8.41071L17.7197 14.8804C18.1172 15.2778 18.1172 15.9223 17.7197 16.3197C17.3223 16.7172 16.6778 16.7172 16.2804 16.3197L9.81071 9.85005Z" fill="#5A5D6C"/>
</svg>
