<svg width="18" height="20" viewBox="0 0 18 20" fill="none" xmlns="http://www.w3.org/2000/svg">
<path d="M9 0.25C9.41422 0.25 9.75 0.585786 9.75 1V2C9.75 2.41421 9.41422 2.75 9 2.75C8.58579 2.75 8.25 2.41421 8.25 2V1C8.25 0.585786 8.58579 0.25 9 0.25Z" fill="#5A5D6C"/>
<path fill-rule="evenodd" clip-rule="evenodd" d="M9 16C12.3137 16 15 13.3137 15 10C15 6.68629 12.3137 4 9 4C5.68629 4 3 6.68629 3 10C3 13.3137 5.68629 16 9 16ZM9 14.5C11.4853 14.5 13.5 12.4853 13.5 10C13.5 7.51472 11.4853 5.5 9 5.5C6.51472 5.5 4.5 7.51472 4.5 10C4.5 12.4853 6.51472 14.5 9 14.5Z" fill="#5A5D6C"/>
<path d="M9.75 18C9.75 17.5858 9.41422 17.25 9 17.25C8.58579 17.25 8.25 17.5858 8.25 18V19C8.25 19.4142 8.58579 19.75 9 19.75C9.41422 19.75 9.75 19.4142 9.75 19V18Z" fill="#5A5D6C"/>
<path d="M17.6495 5.16501C17.8566 5.52373 17.7337 5.98242 17.375 6.18953L16.509 6.68953C16.1503 6.89663 15.6916 6.77373 15.4845 6.41501C15.2774 6.05629 15.4003 5.5976 15.759 5.39049L16.625 4.89049C16.9837 4.68338 17.4424 4.80629 17.6495 5.16501Z" fill="#5A5D6C"/>
<path d="M0.625003 6.18953C0.266284 5.98242 0.143377 5.52373 0.350484 5.16501C0.557591 4.80629 1.01628 4.68338 1.375 4.89049L2.24103 5.39049C2.59975 5.5976 2.72265 6.05629 2.51555 6.41501C2.30844 6.77373 1.84975 6.89663 1.49103 6.68953L0.625003 6.18953Z" fill="#5A5D6C"/>
<path d="M0.350484 14.975C0.143377 14.6163 0.266284 14.1576 0.625003 13.9505L1.49103 13.4505C1.84975 13.2434 2.30844 13.3663 2.51555 13.725C2.72265 14.0837 2.59975 14.5424 2.24103 14.7495L1.375 15.2495C1.01628 15.4566 0.557591 15.3337 0.350484 14.975Z" fill="#5A5D6C"/>
<path d="M17.375 13.9505C17.7337 14.1576 17.8566 14.6163 17.6495 14.975C17.4424 15.3337 16.9837 15.4566 16.625 15.2495L15.759 14.7495C15.4003 14.5424 15.2774 14.0837 15.4845 13.725C15.6916 13.3663 16.1503 13.2434 16.509 13.4505L17.375 13.9505Z" fill="#5A5D6C"/>
</svg>
