<svg width="20" height="21" viewBox="0 0 20 21" fill="none" xmlns="http://www.w3.org/2000/svg">
<path d="M5 0.75C2.37665 0.75 0.25 2.87665 0.25 5.5V15.5C0.25 18.1234 2.37665 20.25 5 20.25H7C9.07107 20.25 10.75 18.5711 10.75 16.5C10.75 16.0858 10.4142 15.75 10 15.75C9.58579 15.75 9.25 16.0858 9.25 16.5C9.25 17.7426 8.24264 18.75 7 18.75H5C3.20507 18.75 1.75 17.2949 1.75 15.5V5.5C1.75 3.70507 3.20507 2.25 5 2.25H7C8.24264 2.25 9.25 3.25736 9.25 4.5C9.25 4.91421 9.58579 5.25 10 5.25C10.4142 5.25 10.75 4.91421 10.75 4.5C10.75 2.42893 9.07107 0.75 7 0.75H5Z" fill="#5A5D6C"/>
<path d="M11.5303 7.96967C11.8232 8.26256 11.8232 8.73744 11.5303 9.03033L10.8107 9.75H19C19.4142 9.75 19.75 10.0858 19.75 10.5C19.75 10.9142 19.4142 11.25 19 11.25H10.8107L11.5303 11.9697C11.8232 12.2626 11.8232 12.7374 11.5303 13.0303C11.2374 13.3232 10.7626 13.3232 10.4697 13.0303L8.46967 11.0303C8.39776 10.9584 8.34351 10.8755 8.30691 10.7871C8.27107 10.7007 8.25093 10.6061 8.25003 10.5069L8.25 10.5L8.25003 10.4931C8.25177 10.3034 8.32498 10.1144 8.46967 9.96967L10.4697 7.96967C10.7626 7.67678 11.2374 7.67678 11.5303 7.96967Z" fill="#5A5D6C"/>
</svg>
