<svg width="21" height="21" viewBox="0 0 21 21" fill="none" xmlns="http://www.w3.org/2000/svg">
<path fill-rule="evenodd" clip-rule="evenodd" d="M3.5 0.5H17.5C19.433 0.5 21 2.067 21 4C21 5.933 19.433 7.5 17.5 7.5H3.5C1.567 7.5 0 5.933 0 4C0 2.067 1.567 0.5 3.5 0.5ZM17.5 2H3.5C2.39543 2 1.5 2.89543 1.5 4C1.5 5.10457 2.39543 6 3.5 6H17.5C18.6046 6 19.5 5.10457 19.5 4C19.5 2.89543 18.6046 2 17.5 2Z" fill="#5A5D6C"/>
<path fill-rule="evenodd" clip-rule="evenodd" d="M1 16.5V12.5C1 10.2909 2.79086 8.5 5 8.5C7.20914 8.5 9 10.2909 9 12.5V16.5C9 18.7091 7.20914 20.5 5 20.5C2.79086 20.5 1 18.7091 1 16.5ZM2.5 12.5V16.5C2.5 17.8807 3.61929 19 5 19C6.38071 19 7.5 17.8807 7.5 16.5V12.5C7.5 11.1193 6.38071 10 5 10C3.61929 10 2.5 11.1193 2.5 12.5Z" fill="#5A5D6C"/>
<path fill-rule="evenodd" clip-rule="evenodd" d="M17 8.5H14C11.7909 8.5 10 10.2909 10 12.5V16.5C10 18.7091 11.7909 20.5 14 20.5H17C19.2091 20.5 21 18.7091 21 16.5V12.5C21 10.2909 19.2091 8.5 17 8.5ZM14 10H17C18.3807 10 19.5 11.1193 19.5 12.5V16.5C19.5 17.8807 18.3807 19 17 19H14C12.6193 19 11.5 17.8807 11.5 16.5V12.5C11.5 11.1193 12.6193 10 14 10Z" fill="#5A5D6C"/>
</svg>
