<svg width="18" height="21" viewBox="0 0 18 21" fill="none" xmlns="http://www.w3.org/2000/svg">
<path fill-rule="evenodd" clip-rule="evenodd" d="M3.90191 3.95645C3.83584 3.96517 3.77292 3.98224 3.71408 4.00646C2.92761 4.0679 2.23752 4.129 1.7406 4.17508C1.48641 4.19865 1.28262 4.21831 1.14214 4.2321L0.980499 4.24815L0.924534 4.25381L0.923455 4.25392C0.511407 4.29623 0.211674 4.66456 0.253981 5.0766C0.296288 5.48865 0.664615 5.78838 1.07666 5.74608L1.07593 5.7389C1.07667 5.74608 1.07666 5.74608 1.07666 5.74608L1.13053 5.74062L1.28869 5.72493C1.42676 5.71137 1.62786 5.69197 1.87912 5.66867C2.38175 5.62206 3.08447 5.55989 3.8843 5.49775C5.48943 5.37302 7.46543 5.25 9.00006 5.25C10.5347 5.25 12.5107 5.37302 14.1158 5.49775C14.9156 5.55989 15.6184 5.62206 16.121 5.66867C16.3723 5.69197 16.5734 5.71137 16.7114 5.72493L16.8696 5.74062L16.9228 5.74601C17.3348 5.78831 17.7038 5.48865 17.7461 5.0766C17.7884 4.66456 17.4887 4.29623 17.0767 4.25392L17.0196 4.24815L16.858 4.2321C16.7175 4.21831 16.5137 4.19865 16.2595 4.17508C15.7626 4.12899 15.0725 4.0679 14.286 4.00646C14.2344 3.98524 14.1796 3.96948 14.1222 3.96001C13.6274 3.87837 13.2109 3.5449 13.0231 3.07999L12.9327 2.85615C12.4184 1.58329 11.183 0.75 9.81012 0.75H8.46293C7.10829 0.75 5.88923 1.57225 5.38176 2.82825C5.13571 3.43723 4.58111 3.8668 3.92994 3.95275L3.90191 3.95645ZM8.46293 2.25C7.71974 2.25 7.05094 2.70111 6.77253 3.39018C6.71209 3.53976 6.64144 3.68341 6.56152 3.82039C7.41079 3.77787 8.25244 3.75 9.00006 3.75C9.82976 3.75 10.7753 3.78433 11.7185 3.8349C11.6876 3.77191 11.6589 3.70755 11.6323 3.64191L11.5419 3.41808C11.2567 2.71214 10.5715 2.25 9.81012 2.25H8.46293Z" fill="#5A5D6C"/>
<path d="M15.7472 7.56497C15.7831 7.15232 15.4777 6.7887 15.065 6.75282C14.6524 6.71694 14.2888 7.02237 14.2529 7.43503L13.4477 16.6949C13.3466 17.8576 12.3732 18.75 11.2061 18.75H6.3942C5.18957 18.75 4.19865 17.8012 4.14632 16.5977L3.74935 7.46742C3.73136 7.0536 3.3813 6.73272 2.96748 6.75071C2.55366 6.7687 2.23277 7.11876 2.25077 7.53258L2.64774 16.6629C2.73495 18.6687 4.38648 20.25 6.3942 20.25H11.2061C13.1513 20.25 14.7735 18.7627 14.942 16.8249L15.7472 7.56497Z" fill="#5A5D6C"/>
<path d="M6.00006 15.75C5.58584 15.75 5.25006 16.0858 5.25006 16.5C5.25006 16.9142 5.58584 17.25 6.00006 17.25H12.0001C12.4143 17.25 12.7501 16.9142 12.7501 16.5C12.7501 16.0858 12.4143 15.75 12.0001 15.75H6.00006Z" fill="#5A5D6C"/>
</svg>
