<svg width="21" height="18" viewBox="0 0 21 18" fill="none" xmlns="http://www.w3.org/2000/svg">
<path d="M0.25 1C0.25 0.585786 0.585786 0.25 1 0.25H18C18.4142 0.25 18.75 0.585788 18.75 1C18.75 1.41422 18.4142 1.75 18 1.75L1 1.75C0.585786 1.75 0.25 1.41421 0.25 1Z" fill="#5A5D6C"/>
<path d="M16 8.25C16.4142 8.25 16.75 8.58579 16.75 9V12.25H20C20.4142 12.25 20.75 12.5858 20.75 13C20.75 13.4142 20.4142 13.75 20 13.75H16.75V17C16.75 17.4142 16.4142 17.75 16 17.75C15.5858 17.75 15.25 17.4142 15.25 17V13.75H12C11.5858 13.75 11.25 13.4142 11.25 13C11.25 12.5858 11.5858 12.25 12 12.25H15.25V9C15.25 8.58579 15.5858 8.25 16 8.25Z" fill="#5A5D6C"/>
<path d="M1 4.75C0.585786 4.75 0.25 5.08579 0.25 5.5C0.25 5.91421 0.585786 6.25 1 6.25L18 6.25C18.4142 6.25 18.75 5.91422 18.75 5.5C18.75 5.08579 18.4142 4.75 18 4.75L1 4.75Z" fill="#5A5D6C"/>
<path d="M0.25 10.5C0.25 10.0858 0.585786 9.75 1 9.75H10C10.4142 9.75 10.75 10.0858 10.75 10.5C10.75 10.9142 10.4142 11.25 10 11.25H1C0.585786 11.25 0.25 10.9142 0.25 10.5Z" fill="#5A5D6C"/>
<path d="M1 14.75C0.585786 14.75 0.25 15.0858 0.25 15.5C0.25 15.9142 0.585786 16.25 1 16.25H10C10.4142 16.25 10.75 15.9142 10.75 15.5C10.75 15.0858 10.4142 14.75 10 14.75H1Z" fill="#5A5D6C"/>
</svg>
