<svg width="26" height="25" viewBox="0 0 26 25" fill="none" xmlns="http://www.w3.org/2000/svg">
<path d="M23.2813 12.5C23.2813 9.80639 22.2113 7.22311 20.3066 5.31845C18.4019 3.41378 15.8187 2.34375 13.1251 2.34375C10.4315 2.34375 7.84817 3.41378 5.94351 5.31845C4.03884 7.22311 2.96881 9.80639 2.96881 12.5C2.96881 15.1936 4.03884 17.7769 5.94351 19.6816C7.84817 21.5862 10.4315 22.6562 13.1251 22.6562C15.8187 22.6562 18.4019 21.5862 20.3066 19.6816C22.2113 17.7769 23.2813 15.1936 23.2813 12.5ZM0.625061 12.5C0.625061 9.18479 1.94202 6.00537 4.28623 3.66117C6.63043 1.31696 9.80985 0 13.1251 0C16.4403 0 19.6197 1.31696 21.9639 3.66117C24.3081 6.00537 25.6251 9.18479 25.6251 12.5C25.6251 15.8152 24.3081 18.9946 21.9639 21.3388C19.6197 23.683 16.4403 25 13.1251 25C9.80985 25 6.63043 23.683 4.28623 21.3388C1.94202 18.9946 0.625061 15.8152 0.625061 12.5ZM15.6006 15.874L8.55475 18.584C7.60748 18.9502 6.67487 18.0176 7.04108 17.0703L9.75104 10.0244C9.91217 9.60938 10.2344 9.28711 10.6495 9.12598L17.6954 6.41602C18.6426 6.0498 19.5753 6.98242 19.209 7.92969L16.4991 14.9756C16.3428 15.3906 16.0157 15.7129 15.6006 15.874ZM14.6876 12.5C14.6876 12.0856 14.5229 11.6882 14.2299 11.3951C13.9369 11.1021 13.5395 10.9375 13.1251 10.9375C12.7107 10.9375 12.3132 11.1021 12.0202 11.3951C11.7272 11.6882 11.5626 12.0856 11.5626 12.5C11.5626 12.9144 11.7272 13.3118 12.0202 13.6049C12.3132 13.8979 12.7107 14.0625 13.1251 14.0625C13.5395 14.0625 13.9369 13.8979 14.2299 13.6049C14.5229 13.3118 14.6876 12.9144 14.6876 12.5Z" fill="#FF7E3A"/>
</svg>
