<svg width="23" height="20" viewBox="0 0 23 20" fill="none" xmlns="http://www.w3.org/2000/svg">
<path d="M9.82747 19.1179L9.72004 19.0191L2.19192 12.0281C0.872778 10.8035 0.125122 9.08474 0.125122 7.28435V7.14255C0.125122 4.11755 2.27356 1.52224 5.247 0.95505C6.93997 0.628488 8.67161 1.0195 10.0509 1.9906C10.4376 2.2656 10.7986 2.58357 11.1251 2.9488C11.3056 2.74255 11.499 2.55349 11.7052 2.37732C11.8642 2.23982 12.0275 2.11091 12.1993 1.9906C13.5786 1.0195 15.3103 0.628488 17.0032 0.950754C19.9767 1.51794 22.1251 4.11755 22.1251 7.14255V7.28435C22.1251 9.08474 21.3775 10.8035 20.0583 12.0281L12.5302 19.0191L12.4228 19.1179C12.0704 19.4445 11.6064 19.6293 11.1251 19.6293C10.6439 19.6293 10.1798 19.4488 9.82747 19.1179ZM10.399 5.23044C10.3818 5.21755 10.3689 5.20036 10.356 5.18318L9.59114 4.3238L9.58684 4.3195C8.59426 3.20661 7.09465 2.69958 5.63372 2.97888C3.63137 3.3613 2.18762 5.10583 2.18762 7.14255V7.28435C2.18762 8.50896 2.69895 9.682 3.597 10.5156L11.1251 17.5066L18.6532 10.5156C19.5513 9.682 20.0626 8.50896 20.0626 7.28435V7.14255C20.0626 5.11013 18.6189 3.3613 16.6208 2.97888C15.1599 2.69958 13.656 3.21091 12.6677 4.3195C12.6677 4.3195 12.6677 4.3195 12.6634 4.3238C12.6591 4.3281 12.6634 4.3238 12.6591 4.3281L11.8943 5.18747C11.8814 5.20466 11.8642 5.21755 11.8513 5.23474C11.6579 5.4281 11.3958 5.53552 11.1251 5.53552C10.8544 5.53552 10.5923 5.4281 10.399 5.23474V5.23044Z" fill="#FF7E3A"/>
</svg>
